<?xml version="1.0" encoding="UTF-8" standalone="no"?>
<!DOCTYPE svg PUBLIC "-//W3C//DTD SVG 1.1//EN" "http://www.w3.org/Graphics/SVG/1.1/DTD/svg11.dtd">
<svg width="100%" height="100%" viewBox="0 0 1719 350" version="1.1" xmlns="http://www.w3.org/2000/svg" xmlns:xlink="http://www.w3.org/1999/xlink" xml:space="preserve" xmlns:serif="http://www.serif.com/" style="fill-rule:evenodd;clip-rule:evenodd;stroke-linejoin:round;stroke-miterlimit:2;">
    <g transform="matrix(4.16667,0,0,4.16667,-142.312,-84.3708)">
        <path d="M152.507,44.858L150.336,44.858L150.336,32.352C150.336,31.364 150.396,30.155 150.518,28.725L150.466,28.725C150.258,29.566 150.072,30.168 149.907,30.532L143.537,44.858L142.471,44.858L136.114,30.636C135.932,30.22 135.746,29.583 135.556,28.725L135.503,28.725C135.573,29.47 135.607,30.688 135.607,32.378L135.607,44.858L133.501,44.858L133.501,26.216L136.388,26.216L142.107,39.215C142.549,40.212 142.835,40.958 142.965,41.452L143.043,41.452C143.416,40.429 143.715,39.667 143.94,39.164L149.777,26.216L152.507,26.216L152.507,44.858Z" style="fill:rgb(80,85,88);fill-rule:nonzero;"/>
    </g>
    <g transform="matrix(4.16667,0,0,4.16667,-142.312,-84.3708)">
        <path d="M160.879,26.216L160.879,28.088L159.059,28.088L159.059,42.985L160.879,42.985L160.879,44.858L155.055,44.858L155.055,42.985L156.875,42.985L156.875,28.088L155.055,28.088L155.055,26.216L160.879,26.216Z" style="fill:rgb(80,85,88);fill-rule:nonzero;"/>
    </g>
    <g transform="matrix(4.16667,0,0,4.16667,-142.312,-84.3708)">
        <path d="M178.455,44.858L175.777,44.858L166.183,29.999C165.941,29.627 165.742,29.236 165.586,28.829L165.508,28.829C165.577,29.228 165.612,30.081 165.612,31.39L165.612,44.858L163.428,44.858L163.428,26.216L166.262,26.216L175.596,40.84C175.985,41.447 176.237,41.863 176.349,42.088L176.401,42.088C176.315,41.551 176.271,40.637 176.271,39.346L176.271,26.216L178.455,26.216L178.455,44.858Z" style="fill:rgb(80,85,88);fill-rule:nonzero;"/>
    </g>
    <g transform="matrix(4.16667,0,0,4.16667,-142.312,-84.3708)">
        <path d="M186.815,26.216L186.815,28.088L184.995,28.088L184.995,42.985L186.815,42.985L186.815,44.858L180.991,44.858L180.991,42.985L182.811,42.985L182.811,28.088L180.991,28.088L180.991,26.216L186.815,26.216Z" style="fill:rgb(80,85,88);fill-rule:nonzero;"/>
    </g>
    <g transform="matrix(4.16667,0,0,4.16667,-142.312,-84.3708)">
        <path d="M188.492,44.104L188.492,41.529C188.787,41.79 189.14,42.024 189.552,42.232C189.963,42.44 190.397,42.615 190.852,42.758C191.307,42.901 191.764,43.011 192.223,43.089C192.682,43.168 193.107,43.207 193.497,43.207C194.84,43.207 195.844,42.958 196.507,42.459C197.169,41.961 197.501,41.244 197.501,40.308C197.501,39.805 197.391,39.367 197.169,38.995C196.949,38.622 196.643,38.282 196.253,37.974C195.863,37.667 195.402,37.372 194.869,37.09C194.336,36.809 193.762,36.512 193.146,36.2C192.496,35.871 191.89,35.537 191.326,35.199C190.763,34.861 190.273,34.488 189.857,34.081C189.441,33.673 189.114,33.212 188.876,32.696C188.637,32.181 188.518,31.576 188.518,30.883C188.518,30.034 188.704,29.295 189.077,28.667C189.45,28.038 189.939,27.521 190.546,27.113C191.153,26.706 191.844,26.402 192.62,26.203C193.395,26.004 194.186,25.904 194.992,25.904C196.829,25.904 198.168,26.125 199.009,26.567L199.009,29.024C197.908,28.261 196.495,27.88 194.771,27.88C194.294,27.88 193.818,27.93 193.341,28.029C192.865,28.129 192.44,28.292 192.067,28.517C191.694,28.742 191.391,29.033 191.157,29.388C190.923,29.743 190.806,30.177 190.806,30.688C190.806,31.165 190.895,31.576 191.073,31.923C191.25,32.27 191.513,32.586 191.859,32.872C192.206,33.158 192.628,33.435 193.127,33.704C193.625,33.973 194.199,34.267 194.849,34.588C195.516,34.917 196.149,35.264 196.747,35.628C197.345,35.992 197.87,36.395 198.32,36.837C198.77,37.279 199.128,37.769 199.392,38.306C199.657,38.843 199.789,39.459 199.789,40.151C199.789,41.07 199.609,41.848 199.249,42.485C198.89,43.122 198.405,43.64 197.793,44.039C197.182,44.437 196.478,44.726 195.681,44.903C194.884,45.081 194.043,45.17 193.159,45.17C192.865,45.17 192.5,45.146 192.067,45.098C191.634,45.05 191.192,44.981 190.741,44.89C190.29,44.799 189.864,44.687 189.461,44.552C189.058,44.418 188.735,44.268 188.492,44.104Z" style="fill:rgb(80,85,88);fill-rule:nonzero;"/>
    </g>
    <g transform="matrix(4.16667,0,0,4.16667,-142.312,-84.3708)">
        <path d="M213.998,28.192L208.617,28.192L208.617,44.858L206.432,44.858L206.432,28.192L201.064,28.192L201.064,26.216L213.998,26.216L213.998,28.192Z" style="fill:rgb(80,85,88);fill-rule:nonzero;"/>
    </g>
    <g transform="matrix(4.16667,0,0,4.16667,-142.312,-84.3708)">
        <path d="M224.386,20.249L220.979,24.513L219.328,24.513L222.227,20.249L224.386,20.249ZM226.27,44.858L216.391,44.858L216.391,26.216L225.854,26.216L225.854,28.192L218.575,28.192L218.575,34.393L225.308,34.393L225.308,36.356L218.575,36.356L218.575,42.881L226.27,42.881L226.27,44.858Z" style="fill:rgb(80,85,88);fill-rule:nonzero;"/>
    </g>
    <g transform="matrix(4.16667,0,0,4.16667,-142.312,-84.3708)">
        <path d="M231.51,28.192L231.51,34.952L234.474,34.952C235.02,34.952 235.525,34.87 235.989,34.705C236.452,34.54 236.853,34.304 237.191,33.996C237.529,33.689 237.793,33.312 237.984,32.865C238.174,32.419 238.27,31.919 238.27,31.364C238.27,30.367 237.947,29.589 237.302,29.03C236.656,28.471 235.722,28.192 234.5,28.192L231.51,28.192ZM242.69,44.858L240.09,44.858L236.97,39.631C236.684,39.147 236.407,38.733 236.138,38.39C235.869,38.048 235.594,37.769 235.312,37.552C235.031,37.335 234.727,37.177 234.403,37.077C234.078,36.978 233.711,36.928 233.304,36.928L231.51,36.928L231.51,44.858L229.326,44.858L229.326,26.216L234.89,26.216C235.704,26.216 236.456,26.318 237.145,26.522C237.834,26.725 238.432,27.035 238.939,27.451C239.446,27.867 239.843,28.385 240.129,29.004C240.415,29.624 240.558,30.35 240.558,31.182C240.558,31.832 240.46,32.428 240.266,32.969C240.07,33.511 239.793,33.994 239.433,34.419C239.074,34.843 238.641,35.205 238.133,35.504C237.626,35.803 237.057,36.035 236.424,36.2L236.424,36.252C236.736,36.39 237.007,36.549 237.236,36.726C237.466,36.904 237.685,37.114 237.893,37.357C238.101,37.599 238.307,37.875 238.511,38.182C238.714,38.49 238.941,38.847 239.193,39.254L242.69,44.858Z" style="fill:rgb(80,85,88);fill-rule:nonzero;"/>
    </g>
    <g transform="matrix(4.16667,0,0,4.16667,-142.312,-84.3708)">
        <path d="M248.722,26.216L248.722,28.088L246.902,28.088L246.902,42.985L248.722,42.985L248.722,44.858L242.898,44.858L242.898,42.985L244.718,42.985L244.718,28.088L242.898,28.088L242.898,26.216L248.722,26.216Z" style="fill:rgb(80,85,88);fill-rule:nonzero;"/>
    </g>
    <g transform="matrix(4.16667,0,0,4.16667,-142.312,-84.3708)">
        <path d="M258.941,27.88C256.982,27.88 255.392,28.587 254.17,29.999C252.948,31.412 252.337,33.266 252.337,35.563C252.337,37.859 252.932,39.708 254.124,41.107C255.316,42.507 256.87,43.207 258.785,43.207C260.829,43.207 262.442,42.539 263.62,41.205C264.799,39.87 265.389,38.003 265.389,35.602C265.389,33.141 264.817,31.238 263.673,29.895C262.529,28.552 260.95,27.88 258.941,27.88ZM258.785,45.17C256.14,45.17 254.025,44.298 252.434,42.557C250.844,40.815 250.049,38.548 250.049,35.758C250.049,32.759 250.859,30.367 252.48,28.582C254.1,26.797 256.306,25.904 259.096,25.904C261.67,25.904 263.744,26.771 265.317,28.504C266.89,30.237 267.677,32.503 267.677,35.303C267.677,38.345 266.87,40.75 265.259,42.518C263.647,44.286 261.489,45.17 258.785,45.17Z" style="fill:rgb(80,85,88);fill-rule:nonzero;"/>
    </g>
    <g transform="matrix(4.16667,0,0,4.16667,-142.312,-84.3708)">
        <path d="M279.754,28.192L279.754,42.881L282.536,42.881C284.98,42.881 286.882,42.227 288.243,40.919C289.603,39.61 290.284,37.755 290.284,35.355C290.284,30.58 287.745,28.192 282.666,28.192L279.754,28.192ZM277.57,44.858L277.57,26.216L282.718,26.216C289.287,26.216 292.572,29.245 292.572,35.303C292.572,38.18 291.66,40.492 289.835,42.238C288.011,43.984 285.569,44.858 282.51,44.858L277.57,44.858Z" style="fill:rgb(80,85,88);fill-rule:nonzero;"/>
    </g>
    <g transform="matrix(4.16667,0,0,4.16667,-142.312,-84.3708)">
        <path d="M304.376,37.669L301.451,29.726C301.355,29.466 301.26,29.05 301.165,28.478L301.113,28.478C301.026,29.006 300.927,29.422 300.814,29.726L297.915,37.669L304.376,37.669ZM309.485,44.858L307.067,44.858L305.091,39.631L297.187,39.631L295.328,44.858L292.897,44.858L300.047,26.216L302.309,26.216L309.485,44.858Z" style="fill:rgb(80,85,88);fill-rule:nonzero;"/>
    </g>
    <g transform="matrix(4.16667,0,0,4.16667,-142.312,-84.3708)">
        <path d="M48.688,70.817C47.328,71.476 45.551,71.805 43.358,71.805C40.498,71.805 38.249,70.964 36.612,69.283C34.974,67.602 34.155,65.362 34.155,62.563C34.155,59.582 35.076,57.164 36.917,55.309C38.759,53.455 41.148,52.527 44.086,52.527C45.907,52.527 47.44,52.757 48.688,53.216L48.688,57.259C47.44,56.514 46.019,56.141 44.425,56.141C42.674,56.141 41.261,56.691 40.186,57.792C39.112,58.893 38.575,60.383 38.575,62.264C38.575,64.066 39.081,65.503 40.096,66.573C41.11,67.643 42.475,68.178 44.19,68.178C45.829,68.178 47.328,67.78 48.688,66.982L48.688,70.817Z" style="fill:rgb(80,85,88);fill-rule:nonzero;"/>
    </g>
    <g transform="matrix(4.16667,0,0,4.16667,-142.312,-84.3708)">
        <path d="M57.165,52.839L57.165,56.089L55.605,56.089L55.605,68.23L57.165,68.23L57.165,71.48L49.846,71.48L49.846,68.23L51.406,68.23L51.406,56.089L49.846,56.089L49.846,52.839L57.165,52.839Z" style="fill:rgb(80,85,88);fill-rule:nonzero;"/>
    </g>
    <g transform="matrix(4.16667,0,0,4.16667,-142.312,-84.3708)">
        <path d="M69.294,51.11L66.603,51.11L64.549,48.666L62.638,51.11L59.947,51.11L63.002,46.885L66.226,46.885L69.294,51.11ZM70.49,71.48L59.31,71.48L59.31,52.839L70.061,52.839L70.061,56.258L63.509,56.258L63.509,60.405L69.606,60.405L69.606,63.811L63.509,63.811L63.509,68.074L70.49,68.074L70.49,71.48Z" style="fill:rgb(80,85,88);fill-rule:nonzero;"/>
    </g>
    <g transform="matrix(4.16667,0,0,4.16667,-142.312,-84.3708)">
        <path d="M89.717,71.48L85.479,71.48L77.796,59.768C77.346,59.084 77.034,58.567 76.86,58.221L76.808,58.221C76.877,58.879 76.912,59.885 76.912,61.237L76.912,71.48L72.947,71.48L72.947,52.839L77.471,52.839L84.868,64.188C85.206,64.699 85.518,65.206 85.804,65.709L85.856,65.709C85.787,65.276 85.752,64.422 85.752,63.148L85.752,52.839L89.717,52.839L89.717,71.48Z" style="fill:rgb(80,85,88);fill-rule:nonzero;"/>
    </g>
    <g transform="matrix(4.16667,0,0,4.16667,-142.312,-84.3708)">
        <path d="M106.812,70.817C105.452,71.476 103.675,71.805 101.482,71.805C98.622,71.805 96.373,70.964 94.735,69.283C93.097,67.602 92.278,65.362 92.278,62.563C92.278,59.582 93.199,57.164 95.041,55.309C96.882,53.455 99.272,52.527 102.21,52.527C104.031,52.527 105.564,52.757 106.812,53.216L106.812,57.259C105.564,56.514 104.143,56.141 102.549,56.141C100.798,56.141 99.385,56.691 98.31,57.792C97.235,58.893 96.698,60.383 96.698,62.264C96.698,64.066 97.205,65.503 98.219,66.573C99.233,67.643 100.599,68.178 102.314,68.178C103.953,68.178 105.452,67.78 106.812,66.982L106.812,70.817Z" style="fill:rgb(80,85,88);fill-rule:nonzero;"/>
    </g>
    <g transform="matrix(4.16667,0,0,4.16667,-142.312,-84.3708)">
        <path d="M115.289,52.839L115.289,56.089L113.729,56.089L113.729,68.23L115.289,68.23L115.289,71.48L107.97,71.48L107.97,68.23L109.53,68.23L109.53,56.089L107.97,56.089L107.97,52.839L115.289,52.839Z" style="fill:rgb(80,85,88);fill-rule:nonzero;"/>
    </g>
    <g transform="matrix(4.16667,0,0,4.16667,-142.312,-84.3708)">
        <path d="M126.963,64.109L124.961,57.844C124.814,57.376 124.71,56.817 124.649,56.167L124.545,56.167C124.502,56.713 124.393,57.254 124.221,57.792L122.192,64.109L126.963,64.109ZM133.827,71.48L129.251,71.48L127.925,67.334L121.295,67.334L119.982,71.48L115.432,71.48L122.219,52.839L127.197,52.839L133.827,71.48Z" style="fill:rgb(80,85,88);fill-rule:nonzero;"/>
    </g>
    <g transform="matrix(4.16667,0,0,4.16667,-142.312,-84.3708)">
        <path d="M139.873,68.204L137.962,74.782L134.764,74.782L136.09,68.204L139.873,68.204Z" style="fill:rgb(80,85,88);fill-rule:nonzero;"/>
    </g>
    <g transform="matrix(4.16667,0,0,4.16667,-142.312,-84.3708)">
        <path d="M162.974,56.258L157.658,56.258L157.658,71.48L153.446,71.48L153.446,56.258L148.155,56.258L148.155,52.839L162.974,52.839L162.974,56.258Z" style="fill:rgb(80,85,88);fill-rule:nonzero;"/>
    </g>
    <g transform="matrix(4.16667,0,0,4.16667,-142.312,-84.3708)">
        <path d="M176.13,71.48L164.951,71.48L164.951,52.839L175.702,52.839L175.702,56.258L169.15,56.258L169.15,60.405L175.246,60.405L175.246,63.811L169.15,63.811L169.15,68.074L176.13,68.074L176.13,71.48Z" style="fill:rgb(80,85,88);fill-rule:nonzero;"/>
    </g>
    <g transform="matrix(4.16667,0,0,4.16667,-142.312,-84.3708)">
        <path d="M191.952,70.817C190.591,71.476 188.814,71.805 186.621,71.805C183.762,71.805 181.513,70.964 179.875,69.283C178.237,67.602 177.418,65.362 177.418,62.563C177.418,59.582 178.339,57.164 180.181,55.309C182.022,53.455 184.411,52.527 187.349,52.527C189.17,52.527 190.703,52.757 191.952,53.216L191.952,57.259C190.703,56.514 189.282,56.141 187.688,56.141C185.937,56.141 184.524,56.691 183.45,57.792C182.375,58.893 181.838,60.383 181.838,62.264C181.838,64.066 182.345,65.503 183.359,66.573C184.373,67.643 185.738,68.178 187.453,68.178C189.092,68.178 190.591,67.78 191.952,66.982L191.952,70.817Z" style="fill:rgb(80,85,88);fill-rule:nonzero;"/>
    </g>
    <g transform="matrix(4.16667,0,0,4.16667,-142.312,-84.3708)">
        <path d="M211.438,71.48L207.201,71.48L199.518,59.768C199.067,59.084 198.755,58.567 198.582,58.221L198.53,58.221C198.599,58.879 198.634,59.885 198.634,61.237L198.634,71.48L194.669,71.48L194.669,52.839L199.193,52.839L206.59,64.188C206.928,64.699 207.24,65.206 207.526,65.709L207.578,65.709C207.508,65.276 207.474,64.422 207.474,63.148L207.474,52.839L211.438,52.839L211.438,71.48Z" style="fill:rgb(80,85,88);fill-rule:nonzero;"/>
    </g>
    <g transform="matrix(4.16667,0,0,4.16667,-142.312,-84.3708)">
        <path d="M223.23,56.141C221.756,56.141 220.586,56.693 219.72,57.798C218.853,58.903 218.42,60.366 218.42,62.186C218.42,64.031 218.853,65.492 219.72,66.566C220.586,67.641 221.722,68.178 223.126,68.178C224.573,68.178 225.721,67.656 226.571,66.612C227.42,65.568 227.845,64.118 227.845,62.264C227.845,60.331 227.433,58.828 226.61,57.753C225.786,56.678 224.66,56.141 223.23,56.141ZM223.048,71.805C220.378,71.805 218.203,70.936 216.522,69.199C214.84,67.462 214,65.197 214,62.407C214,59.461 214.853,57.077 216.561,55.257C218.268,53.437 220.53,52.527 223.347,52.527C226.007,52.527 228.159,53.398 229.801,55.14C231.443,56.882 232.265,59.179 232.265,62.03C232.265,64.959 231.413,67.32 229.71,69.114C228.007,70.908 225.786,71.805 223.048,71.805Z" style="fill:rgb(80,85,88);fill-rule:nonzero;"/>
    </g>
    <g transform="matrix(4.16667,0,0,4.16667,-142.312,-84.3708)">
        <path d="M245.928,71.48L234.826,71.48L234.826,52.839L239.025,52.839L239.025,68.074L245.928,68.074L245.928,71.48Z" style="fill:rgb(80,85,88);fill-rule:nonzero;"/>
    </g>
    <g transform="matrix(4.16667,0,0,4.16667,-142.312,-84.3708)">
        <path d="M255.301,56.141C253.828,56.141 252.658,56.693 251.791,57.798C250.924,58.903 250.491,60.366 250.491,62.186C250.491,64.031 250.924,65.492 251.791,66.566C252.658,67.641 253.793,68.178 255.197,68.178C256.644,68.178 257.792,67.656 258.642,66.612C259.491,65.568 259.915,64.118 259.915,62.264C259.915,60.331 259.504,58.828 258.681,57.753C257.857,56.678 256.73,56.141 255.301,56.141ZM255.119,71.805C252.45,71.805 250.274,70.936 248.593,69.199C246.911,67.462 246.071,65.197 246.071,62.407C246.071,59.461 246.925,57.077 248.632,55.257C250.339,53.437 252.601,52.527 255.418,52.527C258.078,52.527 260.23,53.398 261.872,55.14C263.515,56.882 264.336,59.179 264.336,62.03C264.336,64.959 263.484,67.32 261.781,69.114C260.078,70.908 257.857,71.805 255.119,71.805Z" style="fill:rgb(80,85,88);fill-rule:nonzero;"/>
    </g>
    <g transform="matrix(4.16667,0,0,4.16667,-142.312,-84.3708)">
        <path d="M282.198,70.232C280.378,71.281 278.116,71.805 275.411,71.805C272.413,71.805 270.049,70.975 268.32,69.316C266.592,67.656 265.727,65.371 265.727,62.458C265.727,59.529 266.671,57.142 268.561,55.296C270.45,53.45 272.963,52.527 276.101,52.527C278.077,52.527 279.819,52.8 281.327,53.346L281.327,57.285C279.888,56.453 278.129,56.037 276.049,56.037C274.307,56.037 272.888,56.603 271.791,57.733C270.695,58.864 270.147,60.375 270.147,62.264C270.147,64.179 270.639,65.661 271.622,66.71C272.606,67.758 273.934,68.282 275.607,68.282C276.612,68.282 277.409,68.139 277.999,67.853L277.999,64.214L274.268,64.214L274.268,60.86L282.198,60.86L282.198,70.232Z" style="fill:rgb(80,85,88);fill-rule:nonzero;"/>
    </g>
    <g transform="matrix(4.16667,0,0,4.16667,-142.312,-84.3708)">
        <path d="M291.051,52.839L291.051,56.089L289.492,56.089L289.492,68.23L291.051,68.23L291.051,71.48L283.732,71.48L283.732,68.23L285.292,68.23L285.292,56.089L283.732,56.089L283.732,52.839L291.051,52.839Z" style="fill:rgb(80,85,88);fill-rule:nonzero;"/>
    </g>
    <g transform="matrix(4.16667,0,0,4.16667,-142.312,-84.3708)">
        <path d="M302.725,64.109L300.724,57.844C300.576,57.376 300.472,56.817 300.411,56.167L300.307,56.167C300.264,56.713 300.156,57.254 299.983,57.792L297.954,64.109L302.725,64.109ZM309.589,71.48L305.014,71.48L303.687,67.334L297.057,67.334L295.745,71.48L291.195,71.48L297.981,52.839L302.959,52.839L309.589,71.48Z" style="fill:rgb(80,85,88);fill-rule:nonzero;"/>
    </g>
    <g transform="matrix(4.16667,0,0,4.16667,-142.312,-84.3708)">
        <path d="M156.265,98.104L145.085,98.104L145.085,79.462L155.836,79.462L155.836,82.881L149.285,82.881L149.285,87.028L155.381,87.028L155.381,90.434L149.285,90.434L149.285,94.698L156.265,94.698L156.265,98.104Z" style="fill:rgb(80,85,88);fill-rule:nonzero;"/>
    </g>
    <g transform="matrix(4.16667,0,0,4.16667,-142.312,-84.3708)">
        <path d="M171.293,79.462L171.293,82.712L169.734,82.712L169.734,94.854L171.293,94.854L171.293,98.104L163.974,98.104L163.974,94.854L165.535,94.854L165.535,82.712L163.974,82.712L163.974,79.462L171.293,79.462Z" style="fill:rgb(80,85,88);fill-rule:nonzero;"/>
    </g>
    <g transform="matrix(4.16667,0,0,4.16667,-142.312,-84.3708)">
        <path d="M190.209,98.104L185.971,98.104L178.288,86.391C177.838,85.707 177.526,85.191 177.352,84.844L177.3,84.844C177.37,85.504 177.404,86.508 177.404,87.86L177.404,98.104L173.439,98.104L173.439,79.462L177.963,79.462L185.36,90.811C185.698,91.323 186.01,91.83 186.296,92.333L186.348,92.333C186.279,91.899 186.244,91.045 186.244,89.771L186.244,79.462L190.209,79.462L190.209,98.104Z" style="fill:rgb(80,85,88);fill-rule:nonzero;"/>
    </g>
    <g transform="matrix(4.16667,0,0,4.16667,-142.312,-84.3708)">
        <path d="M202,82.764C200.526,82.764 199.356,83.317 198.49,84.421C197.623,85.527 197.19,86.99 197.19,88.809C197.19,90.655 197.623,92.116 198.49,93.19C199.356,94.265 200.492,94.802 201.896,94.802C203.343,94.802 204.491,94.28 205.341,93.236C206.19,92.191 206.615,90.742 206.615,88.887C206.615,86.955 206.203,85.451 205.38,84.377C204.556,83.302 203.43,82.764 202,82.764ZM201.818,98.429C199.148,98.429 196.973,97.56 195.292,95.823C193.61,94.086 192.77,91.821 192.77,89.03C192.77,86.084 193.623,83.701 195.331,81.88C197.038,80.06 199.3,79.151 202.117,79.151C204.777,79.151 206.929,80.021 208.571,81.763C210.213,83.505 211.035,85.802 211.035,88.653C211.035,91.583 210.183,93.944 208.48,95.738C206.777,97.532 204.556,98.429 201.818,98.429Z" style="fill:rgb(80,85,88);fill-rule:nonzero;"/>
    </g>
    <g transform="matrix(4.16667,0,0,4.16667,-142.312,-84.3708)">
        <path d="M229.118,79.462L222.696,98.104L217.938,98.104L211.594,79.462L216.118,79.462L220.005,92.436C220.213,93.138 220.339,93.758 220.382,94.295L220.46,94.295C220.52,93.714 220.655,93.078 220.863,92.384L224.724,79.462L229.118,79.462Z" style="fill:rgb(80,85,88);fill-rule:nonzero;"/>
    </g>
    <g transform="matrix(4.16667,0,0,4.16667,-142.312,-84.3708)">
        <path d="M238.972,90.733L236.97,84.467C236.822,84 236.718,83.44 236.658,82.791L236.554,82.791C236.51,83.337 236.402,83.879 236.229,84.416L234.201,90.733L238.972,90.733ZM245.835,98.104L241.26,98.104L239.933,93.958L233.304,93.958L231.991,98.104L227.441,98.104L234.227,79.462L239.205,79.462L245.835,98.104Z" style="fill:rgb(80,85,88);fill-rule:nonzero;"/>
    </g>
    <g transform="matrix(4.16667,0,0,4.16667,-142.312,-84.3708)">
        <path d="M253.428,103.967L253.428,102.173C253.731,102.225 254.043,102.25 254.364,102.25C255.43,102.25 255.963,101.934 255.963,101.302C255.963,100.73 255.482,100.443 254.52,100.443C254.408,100.443 254.247,100.452 254.039,100.47L254.039,98.104L256.275,98.104L256.275,99.17C257.894,99.239 258.706,99.959 258.706,101.327C258.706,103.121 257.328,104.019 254.572,104.019C254.173,104.019 253.792,104.001 253.428,103.967ZM260.993,97.441C259.633,98.1 257.857,98.429 255.664,98.429C252.804,98.429 250.555,97.588 248.917,95.907C247.279,94.226 246.46,91.986 246.46,89.186C246.46,86.205 247.381,83.788 249.223,81.932C251.064,80.078 253.454,79.151 256.392,79.151C258.212,79.151 259.746,79.38 260.993,79.839L260.993,83.882C259.746,83.137 258.325,82.764 256.73,82.764C254.979,82.764 253.567,83.315 252.492,84.416C251.417,85.516 250.88,87.006 250.88,88.887C250.88,90.69 251.387,92.127 252.401,93.197C253.415,94.267 254.78,94.802 256.496,94.802C258.134,94.802 259.633,94.404 260.993,93.606L260.993,97.441Z" style="fill:rgb(80,85,88);fill-rule:nonzero;"/>
    </g>
    <g transform="matrix(4.16667,0,0,4.16667,-142.312,-84.3708)">
        <path d="M276.49,73.691C276.49,74.904 276.249,75.842 275.768,76.505C275.287,77.169 274.631,77.5 273.799,77.5C273.054,77.5 272.326,77.313 271.615,76.941C270.844,76.534 270.311,76.33 270.016,76.33C269.323,76.33 268.976,76.797 268.976,77.734L267.143,77.734C267.143,76.529 267.382,75.593 267.858,74.925C268.335,74.258 269.002,73.924 269.86,73.924C270.562,73.924 271.29,74.137 272.044,74.562C272.729,74.943 273.249,75.133 273.604,75.133C274.28,75.133 274.618,74.653 274.618,73.691L276.49,73.691ZM271.771,82.764C270.298,82.764 269.128,83.317 268.261,84.421C267.394,85.527 266.961,86.99 266.961,88.809C266.961,90.655 267.394,92.116 268.261,93.19C269.128,94.265 270.263,94.802 271.667,94.802C273.115,94.802 274.263,94.28 275.112,93.236C275.961,92.191 276.386,90.742 276.386,88.887C276.386,86.955 275.974,85.451 275.151,84.377C274.328,83.302 273.201,82.764 271.771,82.764ZM271.589,98.429C268.92,98.429 266.745,97.56 265.063,95.823C263.382,94.086 262.541,91.821 262.541,89.03C262.541,86.084 263.395,83.701 265.102,81.88C266.809,80.06 269.072,79.151 271.888,79.151C274.549,79.151 276.7,80.021 278.343,81.763C279.985,83.505 280.806,85.802 280.806,88.653C280.806,91.583 279.954,93.944 278.251,95.738C276.549,97.532 274.328,98.429 271.589,98.429Z" style="fill:rgb(80,85,88);fill-rule:nonzero;"/>
    </g>
    <g transform="matrix(4.16667,0,0,4.16667,-142.312,-84.3708)">
        <path d="M294.534,98.104L283.354,98.104L283.354,79.462L294.105,79.462L294.105,82.881L287.554,82.881L287.554,87.028L293.65,87.028L293.65,90.434L287.554,90.434L287.554,94.698L294.534,94.698L294.534,98.104Z" style="fill:rgb(80,85,88);fill-rule:nonzero;"/>
    </g>
    <g transform="matrix(4.16667,0,0,4.16667,-142.312,-84.3708)">
        <path d="M296.133,97.389L296.133,93.229C296.887,93.862 297.706,94.337 298.59,94.653C299.474,94.969 300.367,95.128 301.268,95.128C301.797,95.128 302.258,95.08 302.653,94.984C303.047,94.889 303.376,94.756 303.641,94.587C303.905,94.419 304.102,94.219 304.232,93.99C304.362,93.76 304.427,93.511 304.427,93.242C304.427,92.879 304.323,92.553 304.115,92.267C303.907,91.981 303.623,91.717 303.264,91.474C302.904,91.232 302.477,90.998 301.983,90.772C301.489,90.547 300.956,90.317 300.384,90.084C298.928,89.477 297.843,88.736 297.128,87.86C296.412,86.985 296.055,85.928 296.055,84.688C296.055,83.718 296.25,82.883 296.64,82.186C297.03,81.489 297.561,80.915 298.233,80.463C298.904,80.013 299.682,79.681 300.566,79.469C301.45,79.256 302.386,79.151 303.374,79.151C304.345,79.151 305.205,79.21 305.954,79.326C306.704,79.443 307.395,79.623 308.028,79.866L308.028,83.753C307.716,83.536 307.376,83.345 307.007,83.18C306.639,83.016 306.26,82.879 305.87,82.771C305.48,82.663 305.092,82.583 304.706,82.531C304.321,82.478 303.954,82.453 303.608,82.453C303.131,82.453 302.698,82.498 302.308,82.589C301.918,82.68 301.589,82.808 301.32,82.972C301.051,83.137 300.843,83.335 300.696,83.564C300.549,83.794 300.475,84.051 300.475,84.337C300.475,84.649 300.557,84.929 300.722,85.176C300.887,85.422 301.12,85.657 301.424,85.878C301.727,86.099 302.096,86.316 302.529,86.528C302.962,86.741 303.452,86.96 303.998,87.184C304.743,87.497 305.413,87.828 306.006,88.179C306.6,88.53 307.109,88.926 307.534,89.369C307.958,89.81 308.284,90.315 308.509,90.882C308.734,91.451 308.847,92.111 308.847,92.865C308.847,93.905 308.65,94.779 308.255,95.485C307.861,96.191 307.326,96.763 306.65,97.201C305.974,97.638 305.187,97.953 304.29,98.143C303.393,98.334 302.447,98.429 301.45,98.429C300.428,98.429 299.454,98.342 298.532,98.17C297.609,97.996 296.809,97.736 296.133,97.389Z" style="fill:rgb(80,85,88);fill-rule:nonzero;"/>
    </g>
    <g transform="matrix(4.16667,0,0,4.16667,-142.312,-84.3708)">
        <rect x="338.024" y="20.976" width="108.609" height="76.933" style="fill:rgb(19,158,78);"/>
    </g>
    <g transform="matrix(4.16667,0,0,4.16667,-142.312,-84.3708)">
        <path d="M392.306,30.152L347.126,59.438L392.306,88.722L437.488,59.438L392.306,30.152Z" style="fill:rgb(253,198,41);"/>
    </g>
    <g transform="matrix(4.16667,0,0,4.16667,-142.312,-84.3708)">
        <path d="M392.591,40.417C403.231,40.417 411.863,49.047 411.863,59.687C411.863,70.326 403.231,78.958 392.591,78.958C381.951,78.958 373.319,70.326 373.319,59.687C373.319,49.047 381.951,40.417 392.591,40.417Z" style="fill:rgb(39,58,129);"/>
    </g>
    <g transform="matrix(4.16667,0,0,4.16667,-142.312,-84.3708)">
        <path d="M398.031,52.79L398.304,53.474L399.038,53.522L398.472,53.992L398.654,54.708L398.031,54.313L397.408,54.708L397.592,53.992L397.026,53.522L397.76,53.474L398.031,52.79Z" style="fill:white;"/>
    </g>
    <g transform="matrix(4.16667,0,0,4.16667,-142.312,-84.3708)">
        <path d="M397.072,57.538L397.267,58.031L397.798,58.067L397.387,58.402L397.519,58.916L397.072,58.633L396.623,58.916L396.755,58.402L396.346,58.067L396.875,58.031L397.072,57.538Z" style="fill:white;"/>
    </g>
    <g transform="matrix(4.16667,0,0,4.16667,-142.312,-84.3708)">
        <path d="M376.904,55.175L377.177,55.861L377.911,55.907L377.345,56.377L377.527,57.093L376.904,56.698L376.281,57.093L376.465,56.377L375.899,55.907L376.633,55.861L376.904,55.175Z" style="fill:white;"/>
    </g>
    <g transform="matrix(4.16667,0,0,4.16667,-142.312,-84.3708)">
        <path d="M385.319,59.474L385.548,60.051L386.169,60.093L385.69,60.487L385.846,61.092L385.319,60.758L384.794,61.092L384.948,60.487L384.469,60.093L385.09,60.051L385.319,59.474Z" style="fill:white;"/>
    </g>
    <g transform="matrix(4.16667,0,0,4.16667,-142.312,-84.3708)">
        <path d="M380.225,62.488L380.372,62.857L380.768,62.88L380.462,63.136L380.561,63.518L380.225,63.308L379.891,63.518L379.99,63.136L379.682,62.88L380.08,62.857L380.225,62.488Z" style="fill:white;"/>
    </g>
    <g transform="matrix(4.16667,0,0,4.16667,-142.312,-84.3708)">
        <path d="M378.586,63.201L378.857,63.887L379.593,63.935L379.024,64.403L379.209,65.119L378.586,64.726L377.963,65.119L378.145,64.403L377.579,63.935L378.313,63.887L378.586,63.201Z" style="fill:white;"/>
    </g>
    <g transform="matrix(4.16667,0,0,4.16667,-142.312,-84.3708)">
        <path d="M376.392,65.023L376.62,65.6L377.241,65.64L376.762,66.036L376.918,66.641L376.392,66.307L375.866,66.641L376.02,66.036L375.541,65.64L376.163,65.6L376.392,65.023Z" style="fill:white;"/>
    </g>
    <g transform="matrix(4.16667,0,0,4.16667,-142.312,-84.3708)">
        <path d="M382.311,65.17L382.54,65.747L383.159,65.789L382.682,66.183L382.836,66.788L382.311,66.454L381.784,66.788L381.937,66.183L381.461,65.789L382.082,65.747L382.311,65.17Z" style="fill:white;"/>
    </g>
    <g transform="matrix(4.16667,0,0,4.16667,-142.312,-84.3708)">
        <path d="M381.893,67.369L382.09,67.862L382.619,67.896L382.21,68.236L382.342,68.747L381.893,68.464L381.446,68.747L381.578,68.236L381.169,67.896L381.698,67.862L381.893,67.369Z" style="fill:white;"/>
    </g>
    <g transform="matrix(4.16667,0,0,4.16667,-142.312,-84.3708)">
        <path d="M384.714,69.037L384.985,69.723L385.719,69.771L385.152,70.239L385.337,70.955L384.714,70.56L384.091,70.955L384.273,70.239L383.707,69.771L384.441,69.723L384.714,69.037Z" style="fill:white;"/>
    </g>
    <g transform="matrix(4.16667,0,0,4.16667,-142.312,-84.3708)">
        <path d="M392.222,74.251L392.327,74.513L392.608,74.532L392.39,74.713L392.461,74.988L392.222,74.834L391.983,74.988L392.052,74.713L391.834,74.532L392.117,74.513L392.222,74.251Z" style="fill:white;"/>
    </g>
    <g transform="matrix(4.16667,0,0,4.16667,-142.312,-84.3708)">
        <path d="M392.507,61.773L392.736,62.35L393.357,62.392L392.878,62.789L393.032,63.391L392.507,63.057L391.982,63.391L392.136,62.789L391.657,62.392L392.278,62.35L392.507,61.773Z" style="fill:white;"/>
    </g>
    <g transform="matrix(4.16667,0,0,4.16667,-142.312,-84.3708)">
        <path d="M394.244,63.4L394.473,63.977L395.094,64.017L394.617,64.413L394.771,65.018L394.244,64.684L393.719,65.018L393.873,64.413L393.396,64.017L394.015,63.977L394.244,63.4Z" style="fill:white;"/>
    </g>
    <g transform="matrix(4.16667,0,0,4.16667,-142.312,-84.3708)">
        <path d="M391.497,65.217L391.644,65.586L392.04,65.609L391.734,65.865L391.833,66.247L391.497,66.037L391.163,66.247L391.262,65.865L390.956,65.609L391.352,65.586L391.497,65.217Z" style="fill:white;"/>
    </g>
    <g transform="matrix(4.16667,0,0,4.16667,-142.312,-84.3708)">
        <path d="M390.228,63.783L390.425,64.274L390.954,64.31L390.545,64.648L390.677,65.162L390.228,64.876L389.781,65.162L389.913,64.648L389.504,64.31L390.033,64.274L390.228,63.783Z" style="fill:white;"/>
    </g>
    <g transform="matrix(4.16667,0,0,4.16667,-142.312,-84.3708)">
        <path d="M392.345,67.34L392.618,68.024L393.352,68.072L392.786,68.542L392.968,69.258L392.345,68.863L391.722,69.258L391.906,68.542L391.34,68.072L392.074,68.024L392.345,67.34Z" style="fill:white;"/>
    </g>
    <g transform="matrix(4.16667,0,0,4.16667,-142.312,-84.3708)">
        <path d="M396.416,69.719L396.613,70.212L397.142,70.248L396.733,70.584L396.865,71.098L396.416,70.814L395.969,71.098L396.101,70.584L395.69,70.248L396.221,70.212L396.416,69.719Z" style="fill:white;"/>
    </g>
    <g transform="matrix(4.16667,0,0,4.16667,-142.312,-84.3708)">
        <path d="M397.975,71.934L398.202,72.511L398.823,72.553L398.346,72.95L398.5,73.552L397.975,73.218L397.448,73.552L397.602,72.95L397.125,72.553L397.746,72.511L397.975,71.934Z" style="fill:white;"/>
    </g>
    <g transform="matrix(4.16667,0,0,4.16667,-142.312,-84.3708)">
        <path d="M399.709,70.198L399.906,70.689L400.435,70.725L400.026,71.062L400.158,71.576L399.709,71.291L399.262,71.576L399.394,71.062L398.985,70.725L399.514,70.689L399.709,70.198Z" style="fill:white;"/>
    </g>
    <g transform="matrix(4.16667,0,0,4.16667,-142.312,-84.3708)">
        <path d="M401.975,73.598L402.172,74.091L402.701,74.125L402.292,74.465L402.424,74.977L401.975,74.693L401.528,74.977L401.66,74.465L401.251,74.125L401.78,74.091L401.975,73.598Z" style="fill:white;"/>
    </g>
    <g transform="matrix(4.16667,0,0,4.16667,-142.312,-84.3708)">
        <path d="M401.998,71.473L402.227,72.05L402.848,72.092L402.369,72.489L402.525,73.091L401.998,72.757L401.473,73.091L401.627,72.489L401.148,72.092L401.769,72.05L401.998,71.473Z" style="fill:white;"/>
    </g>
    <g transform="matrix(4.16667,0,0,4.16667,-142.312,-84.3708)">
        <path d="M401.946,69.758L402.141,70.249L402.672,70.285L402.261,70.623L402.393,71.137L401.946,70.851L401.497,71.137L401.629,70.623L401.22,70.285L401.749,70.249L401.946,69.758Z" style="fill:white;"/>
    </g>
    <g transform="matrix(4.16667,0,0,4.16667,-142.312,-84.3708)">
        <path d="M403.823,69.776L404.02,70.267L404.549,70.303L404.14,70.641L404.272,71.155L403.823,70.869L403.376,71.155L403.508,70.641L403.097,70.303L403.628,70.267L403.823,69.776Z" style="fill:white;"/>
    </g>
    <g transform="matrix(4.16667,0,0,4.16667,-142.312,-84.3708)">
        <path d="M405.6,68.842L405.827,69.419L406.448,69.461L405.971,69.855L406.125,70.46L405.6,70.126L405.073,70.46L405.226,69.855L404.75,69.461L405.371,69.419L405.6,68.842Z" style="fill:white;"/>
    </g>
    <g transform="matrix(4.16667,0,0,4.16667,-142.312,-84.3708)">
        <path d="M406.497,67.334L406.726,67.911L407.347,67.951L406.868,68.347L407.024,68.952L406.497,68.618L405.972,68.952L406.126,68.347L405.647,67.951L406.268,67.911L406.497,67.334Z" style="fill:white;"/>
    </g>
    <g transform="matrix(4.16667,0,0,4.16667,-142.312,-84.3708)">
        <path d="M405.745,65.299L406.018,65.985L406.752,66.031L406.186,66.501L406.368,67.217L405.745,66.822L405.122,67.217L405.304,66.501L404.738,66.031L405.472,65.985L405.745,65.299Z" style="fill:white;"/>
    </g>
    <g transform="matrix(4.16667,0,0,4.16667,-142.312,-84.3708)">
        <path d="M408.528,65.762L408.723,66.255L409.252,66.289L408.843,66.627L408.975,67.141L408.528,66.855L408.079,67.141L408.211,66.627L407.802,66.289L408.331,66.255L408.528,65.762Z" style="fill:white;"/>
    </g>
    <g transform="matrix(4.16667,0,0,4.16667,-142.312,-84.3708)">
        <path d="M374.687,52.554C374.437,53.179 374.217,53.821 374.034,54.478C376.29,54.132 378.596,53.951 380.942,53.951C392.387,53.951 402.888,58.225 411.027,65.303C411.222,64.664 411.386,64.008 411.514,63.343C403.348,56.31 392.83,52.063 381.376,52.063C379.104,52.063 376.871,52.233 374.687,52.554Z" style="fill:white;"/>
    </g>
    <g transform="matrix(4.16667,0,0,4.16667,-142.312,-84.3708)">
        <path d="M377.231,53.235L377.231,53.233C377.212,53.027 377.046,52.87 376.837,52.889C376.623,52.91 376.49,53.09 376.509,53.294L376.509,53.298C376.53,53.502 376.696,53.659 376.908,53.64C377.118,53.621 377.25,53.441 377.231,53.235ZM376.236,53.327L376.236,53.323C376.205,52.983 376.446,52.681 376.816,52.648C377.185,52.614 377.472,52.864 377.506,53.204L377.506,53.206C377.537,53.546 377.294,53.848 376.925,53.883C376.557,53.917 376.268,53.667 376.236,53.327Z" style="fill:rgb(19,158,78);fill-rule:nonzero;"/>
    </g>
    <g transform="matrix(4.16667,0,0,4.16667,-142.312,-84.3708)">
        <path d="M379.004,53.103C379.132,53.097 379.201,53.025 379.197,52.925L379.197,52.921C379.193,52.807 379.111,52.753 378.983,52.759L378.719,52.772L378.735,53.116L379.004,53.103ZM378.446,52.545L378.994,52.522C379.145,52.513 379.266,52.551 379.348,52.627C379.417,52.69 379.459,52.782 379.463,52.895L379.463,52.9C379.474,53.093 379.373,53.218 379.224,53.281L379.537,53.697L379.226,53.711L378.956,53.338L378.951,53.338L378.746,53.348L378.765,53.732L378.5,53.743L378.446,52.545Z" style="fill:rgb(19,158,78);fill-rule:nonzero;"/>
    </g>
    <g transform="matrix(4.16667,0,0,4.16667,-142.312,-84.3708)">
        <path d="M380.909,53.436C381.127,53.436 381.272,53.289 381.27,53.077L381.27,53.073C381.27,52.861 381.125,52.712 380.909,52.712L380.703,52.714L380.705,53.436L380.909,53.436ZM380.439,52.475L380.907,52.475C381.285,52.475 381.547,52.731 381.547,53.069L381.547,53.073C381.547,53.411 381.287,53.673 380.911,53.673L380.441,53.675L380.439,52.475Z" style="fill:rgb(19,158,78);fill-rule:nonzero;"/>
    </g>
    <g transform="matrix(4.16667,0,0,4.16667,-142.312,-84.3708)">
        <path d="M382.54,52.495L383.444,52.533L383.434,52.768L382.792,52.74L382.781,52.984L383.348,53.007L383.337,53.24L382.771,53.219L382.76,53.471L383.413,53.498L383.402,53.731L382.492,53.693L382.54,52.495Z" style="fill:rgb(19,158,78);fill-rule:nonzero;"/>
    </g>
    <g transform="matrix(4.16667,0,0,4.16667,-142.312,-84.3708)">
        <path d="M384.444,52.591L384.727,52.616L385,53.147L385.357,52.669L385.638,52.692L385.537,53.888L385.277,53.865L385.344,53.086L384.964,53.567L384.956,53.567L384.664,53.032L384.601,53.808L384.343,53.787L384.444,52.591Z" style="fill:rgb(19,158,78);fill-rule:nonzero;"/>
    </g>
    <g transform="matrix(4.16667,0,0,4.16667,-142.312,-84.3708)">
        <path d="M388.483,53.064L389.377,53.217L389.335,53.448L388.701,53.339L388.661,53.58L389.219,53.675L389.179,53.905L388.621,53.811L388.579,54.059L389.224,54.168L389.182,54.401L388.282,54.245L388.483,53.064Z" style="fill:rgb(19,158,78);fill-rule:nonzero;"/>
    </g>
    <g transform="matrix(4.16667,0,0,4.16667,-142.312,-84.3708)">
        <path d="M392.574,54.541C392.702,54.575 392.794,54.516 392.819,54.417L392.822,54.413C392.851,54.3 392.788,54.218 392.66,54.184L392.463,54.134L392.37,54.489L392.574,54.541ZM392.268,53.836L392.74,53.96C393.019,54.031 393.143,54.237 393.082,54.476L393.08,54.48C393.012,54.749 392.767,54.833 392.507,54.766L392.312,54.715L392.221,55.066L391.966,54.998L392.268,53.836Z" style="fill:rgb(19,158,78);fill-rule:nonzero;"/>
    </g>
    <g transform="matrix(4.16667,0,0,4.16667,-142.312,-84.3708)">
        <path d="M394.904,55.186C395.028,55.226 395.118,55.182 395.147,55.085L395.147,55.081C395.183,54.974 395.124,54.894 395.003,54.857L394.753,54.777L394.648,55.106L394.904,55.186ZM394.572,54.471L395.095,54.634C395.24,54.68 395.34,54.758 395.391,54.857C395.435,54.941 395.441,55.041 395.408,55.148L395.405,55.152C395.349,55.337 395.21,55.421 395.049,55.429L395.202,55.927L394.906,55.834L394.776,55.392L394.774,55.39L394.579,55.329L394.463,55.696L394.212,55.616L394.572,54.471Z" style="fill:rgb(19,158,78);fill-rule:nonzero;"/>
    </g>
    <g transform="matrix(4.16667,0,0,4.16667,-142.312,-84.3708)">
        <path d="M397.605,56.157L397.606,56.153C397.681,55.96 397.598,55.748 397.398,55.672C397.202,55.597 397.004,55.702 396.931,55.895L396.931,55.897C396.858,56.09 396.939,56.302 397.137,56.377C397.335,56.455 397.533,56.348 397.605,56.157ZM396.671,55.802L396.673,55.8C396.793,55.481 397.142,55.316 397.489,55.446C397.835,55.576 397.986,55.928 397.864,56.247L397.864,56.251C397.742,56.568 397.392,56.734 397.046,56.604C396.7,56.474 396.551,56.121 396.671,55.802Z" style="fill:rgb(19,158,78);fill-rule:nonzero;"/>
    </g>
    <g transform="matrix(4.16667,0,0,4.16667,-142.312,-84.3708)">
        <path d="M399.158,56.786L399.16,56.782C399.296,56.471 399.653,56.322 399.987,56.471C400.184,56.559 400.278,56.662 400.35,56.811L400.117,56.927C400.064,56.82 400.006,56.744 399.88,56.69C399.706,56.612 399.496,56.704 399.414,56.891L399.412,56.895C399.324,57.094 399.395,57.302 399.59,57.388C399.678,57.428 399.766,57.441 399.846,57.424L399.915,57.266L399.672,57.159L399.764,56.952L400.243,57.164L400.031,57.638C399.876,57.684 399.687,57.695 399.485,57.606C399.143,57.453 399.015,57.109 399.158,56.786Z" style="fill:rgb(19,158,78);fill-rule:nonzero;"/>
    </g>
    <g transform="matrix(4.16667,0,0,4.16667,-142.312,-84.3708)">
        <path d="M402.012,58.105C402.125,58.164 402.224,58.136 402.268,58.046L402.27,58.044C402.32,57.941 402.278,57.855 402.163,57.797L401.93,57.677L401.773,57.983L402.012,58.105ZM401.802,57.345L402.291,57.593C402.427,57.662 402.513,57.755 402.547,57.862C402.579,57.952 402.566,58.053 402.513,58.151L402.513,58.153C402.423,58.327 402.276,58.388 402.115,58.369L402.182,58.883L401.905,58.745L401.853,58.285L401.85,58.283L401.668,58.191L401.494,58.533L401.259,58.413L401.802,57.345Z" style="fill:rgb(19,158,78);fill-rule:nonzero;"/>
    </g>
    <g transform="matrix(4.16667,0,0,4.16667,-142.312,-84.3708)">
        <path d="M403.997,58.509L404.78,58.96L404.662,59.164L404.106,58.843L403.984,59.055L404.475,59.338L404.358,59.539L403.867,59.256L403.743,59.476L404.305,59.799L404.19,60.005L403.399,59.548L403.997,58.509Z" style="fill:rgb(19,158,78);fill-rule:nonzero;"/>
    </g>
    <g transform="matrix(4.16667,0,0,4.16667,-142.312,-84.3708)">
        <path d="M405.426,60.554L405.659,60.481C405.703,60.613 405.766,60.722 405.881,60.797C405.974,60.856 406.049,60.856 406.087,60.795L406.089,60.793C406.127,60.736 406.11,60.684 405.969,60.533C405.799,60.351 405.705,60.21 405.833,60.011L405.835,60.006C405.953,59.824 406.177,59.799 406.383,59.931C406.53,60.025 406.626,60.153 406.676,60.3L406.452,60.392C406.404,60.273 406.341,60.178 406.257,60.124C406.169,60.071 406.099,60.08 406.07,60.13L406.068,60.132C406.024,60.199 406.053,60.248 406.198,60.405C406.368,60.592 406.437,60.736 406.324,60.913L406.322,60.917C406.194,61.116 405.969,61.129 405.751,60.99C405.598,60.892 405.476,60.739 405.426,60.554Z" style="fill:rgb(19,158,78);fill-rule:nonzero;"/>
    </g>
    <g transform="matrix(4.16667,0,0,4.16667,-142.312,-84.3708)">
        <path d="M407.319,61.81L407.554,61.749C407.592,61.883 407.648,61.995 407.76,62.074C407.848,62.137 407.925,62.139 407.967,62.083L407.969,62.081C408.007,62.026 407.995,61.974 407.86,61.816C407.701,61.625 407.613,61.481 407.751,61.288L407.753,61.283C407.879,61.107 408.106,61.09 408.305,61.235C408.448,61.334 408.536,61.466 408.58,61.617L408.351,61.699C408.309,61.577 408.249,61.481 408.167,61.42C408.083,61.361 408.014,61.369 407.98,61.418L407.978,61.418C407.932,61.483 407.959,61.533 408.097,61.697C408.257,61.89 408.32,62.041 408.198,62.211L408.196,62.213C408.058,62.408 407.831,62.412 407.623,62.261C407.472,62.154 407.363,61.997 407.319,61.81Z" style="fill:rgb(19,158,78);fill-rule:nonzero;"/>
    </g>
    <g transform="matrix(4.16667,0,0,4.16667,-142.312,-84.3708)">
        <path d="M410.233,63.478L410.235,63.476C410.363,63.314 410.355,63.086 410.189,62.953C410.019,62.823 409.801,62.861 409.671,63.021L409.669,63.023C409.543,63.184 409.553,63.413 409.719,63.545C409.887,63.677 410.103,63.637 410.233,63.478ZM409.452,62.855L409.455,62.853C409.666,62.586 410.053,62.536 410.342,62.767C410.627,62.998 410.667,63.377 410.453,63.644L410.451,63.646C410.237,63.914 409.853,63.963 409.566,63.734C409.276,63.503 409.238,63.121 409.452,62.855Z" style="fill:rgb(19,158,78);fill-rule:nonzero;"/>
    </g>
</svg>
