<?xml version="1.0" encoding="UTF-8" standalone="no"?>
<!DOCTYPE svg PUBLIC "-//W3C//DTD SVG 1.1//EN" "http://www.w3.org/Graphics/SVG/1.1/DTD/svg11.dtd">
<svg width="100%" height="100%" viewBox="0 0 435 207" version="1.1" xmlns="http://www.w3.org/2000/svg" xmlns:xlink="http://www.w3.org/1999/xlink" xml:space="preserve" xmlns:serif="http://www.serif.com/" style="fill-rule:evenodd;clip-rule:evenodd;stroke-miterlimit:10;">
    <rect x="0" y="0" width="434.411" height="206.202" style="fill:none;"/>
    <g transform="matrix(8.33333,0,0,8.33333,49.2608,205.826)">
        <path d="M0,-5.102L0,0L-0.444,0L-0.444,-4.249L-2.546,-0.671L-2.764,-0.671L-4.865,-4.205L-4.865,0L-5.31,0L-5.31,-5.102L-4.92,-5.102L-2.646,-1.242L-0.399,-5.102L0,-5.102Z" style="fill:rgb(41,188,182);fill-rule:nonzero;"/>
    </g>
    <g transform="matrix(8.33333,0,0,8.33333,121.603,202.501)">
        <path d="M0,-4.304L-1.848,-4.304L-1.848,-4.703L2.302,-4.703L2.302,-4.304L0.454,-4.304L0.454,0.399L0,0.399L0,-4.304Z" style="fill:rgb(41,188,182);fill-rule:nonzero;"/>
    </g>
    <g transform="matrix(8.33333,0,0,8.33333,-99.2133,-581.041)">
        <rect x="30.161" y="89.322" width="0.453" height="5.102" style="fill:rgb(41,188,182);"/>
    </g>
    <g transform="matrix(8.33333,0,0,8.33333,434.409,7.93333)">
        <path d="M0,11.774L0,0C0,-0.182 -0.098,-0.351 -0.256,-0.442L-1.021,-0.883C-1.179,-0.975 -1.373,-0.975 -1.531,-0.883L-11.727,5.003C-11.885,5.095 -11.982,5.263 -11.982,5.445L-11.982,6.329C-11.982,6.512 -11.885,6.68 -11.727,6.771L-1.532,12.658C-1.374,12.749 -1.179,12.749 -1.021,12.658L-0.255,12.216C-0.098,12.125 0,11.956 0,11.774" style="fill:white;fill-rule:nonzero;"/>
    </g>
    <g transform="matrix(8.33333,0,0,8.33333,343.067,68.0467)">
        <path d="M0,-2.652L-0.766,-2.21C-0.924,-2.119 -1.021,-1.95 -1.021,-1.768L-1.021,-0.884C-1.021,-0.702 -0.924,-0.533 -0.766,-0.443L0,-0.001C0.157,0.091 0.352,0.091 0.51,-0.001L1.53,-0.59L1.531,-2.063L0.51,-2.652C0.352,-2.743 0.158,-2.743 0,-2.652" style="fill:rgb(145,161,188);fill-rule:nonzero;"/>
    </g>
    <g transform="matrix(8.33333,0,0,8.33333,423.777,69.2683)">
        <path d="M0,-2.946L-1.276,-2.209L-1.276,-0.736L0,0L1.021,-0.589C1.178,-0.68 1.275,-0.849 1.275,-1.031L1.275,-1.915C1.275,-2.097 1.178,-2.266 1.021,-2.357L0,-2.946Z" style="fill:rgb(41,188,182);fill-rule:nonzero;"/>
    </g>
    <g transform="matrix(8.33333,0,0,8.33333,382.35,45.8292)">
        <path d="M0,-2.708L-0.766,-2.265C-0.923,-2.174 -1.021,-2.006 -1.021,-1.824L-1.021,-0.645L0.254,0.091L1.53,-0.645L1.531,-2.119L0.51,-2.708C0.353,-2.799 0.158,-2.799 0,-2.708" style="fill:rgb(216,59,150);fill-rule:nonzero;"/>
    </g>
    <g transform="matrix(8.33333,0,0,8.33333,382.35,68.16)">
        <path d="M0,2.708L-0.766,2.266C-0.923,2.175 -1.021,2.006 -1.021,1.824L-1.021,0.645L0.254,-0.091L1.53,0.646L1.531,2.119L0.51,2.708C0.353,2.799 0.158,2.799 0,2.708" style="fill:rgb(81,198,216);fill-rule:nonzero;"/>
    </g>
    <g transform="matrix(8.33333,0,0,8.33333,423.777,114.179)">
        <path d="M0,-2.89L-1.276,-2.154L-1.276,-0.975C-1.276,-0.793 -1.179,-0.624 -1.021,-0.533L-0.256,-0.091C-0.098,0 0.097,0 0.254,-0.091L1.021,-0.534C1.178,-0.624 1.275,-0.793 1.275,-0.975L1.275,-1.859C1.275,-2.041 1.178,-2.21 1.021,-2.301L0,-2.89Z" style="fill:rgb(148,116,180);fill-rule:nonzero;"/>
    </g>
    <g transform="matrix(8.33333,0,0,8.33333,421.653,23.14)">
        <path d="M0,-2.708L-0.766,-2.266C-0.924,-2.175 -1.021,-2.006 -1.021,-1.824L-1.021,-0.645L0.254,0.091L1.275,-0.499C1.434,-0.59 1.531,-0.758 1.531,-0.94L1.531,-1.824C1.531,-2.006 1.434,-2.175 1.275,-2.266L0.51,-2.708C0.352,-2.799 0.158,-2.799 0,-2.708" style="fill:rgb(118,132,154);fill-rule:nonzero;"/>
    </g>
    <g transform="matrix(0,-8.33333,-8.33333,0,355.823,48.7292)">
        <path d="M-0.255,-0.255C-0.396,-0.255 -0.51,-0.141 -0.51,0C-0.51,0.141 -0.396,0.255 -0.255,0.255C-0.114,0.255 0,0.141 0,0C0,-0.141 -0.114,-0.255 -0.255,-0.255" style="fill:rgb(0,102,155);fill-rule:nonzero;"/>
    </g>
    <g transform="matrix(0,-8.33333,-8.33333,0,373.841,38.3292)">
        <path d="M-0.255,-0.255C-0.396,-0.255 -0.51,-0.141 -0.51,0C-0.51,0.141 -0.396,0.255 -0.255,0.255C-0.114,0.255 0,0.141 0,0C0,-0.141 -0.114,-0.255 -0.255,-0.255" style="fill:rgb(0,102,155);fill-rule:nonzero;"/>
    </g>
    <g transform="matrix(0,-8.33333,-8.33333,0,413.143,15.6358)">
        <path d="M-0.255,-0.255C-0.396,-0.255 -0.51,-0.141 -0.51,0C-0.51,0.141 -0.396,0.255 -0.255,0.255C-0.114,0.255 0,0.141 0,0C0,-0.141 -0.114,-0.255 -0.255,-0.255" style="fill:rgb(0,102,155);fill-rule:nonzero;"/>
    </g>
    <g transform="matrix(0,-8.33333,-8.33333,0,413.143,61.0092)">
        <path d="M-0.255,-0.255C-0.396,-0.255 -0.51,-0.141 -0.51,0C-0.51,0.141 -0.396,0.255 -0.255,0.255C-0.114,0.255 0,0.141 0,0C0,-0.141 -0.114,-0.255 -0.255,-0.255" style="fill:rgb(0,102,155);fill-rule:nonzero;"/>
    </g>
    <g transform="matrix(0,-8.33333,-8.33333,0,423.776,42.5933)">
        <path d="M-0.255,-0.255C-0.396,-0.255 -0.51,-0.141 -0.51,0C-0.51,0.141 -0.396,0.255 -0.255,0.255C-0.114,0.255 0,0.141 0,0C0,-0.141 -0.114,-0.255 -0.255,-0.255" style="fill:rgb(0,102,155);fill-rule:nonzero;"/>
    </g>
    <g transform="matrix(0,-8.33333,-8.33333,0,395.105,26.0442)">
        <path d="M-0.255,-0.255C-0.396,-0.255 -0.51,-0.141 -0.51,0C-0.51,0.141 -0.396,0.255 -0.255,0.255C-0.114,0.255 0,0.141 0,0C0,-0.141 -0.114,-0.255 -0.255,-0.255" style="fill:rgb(0,102,155);fill-rule:nonzero;"/>
    </g>
    <g transform="matrix(0,-8.33333,-8.33333,0,413.143,48.7333)">
        <path d="M-0.255,-0.255C-0.396,-0.255 -0.51,-0.141 -0.51,0C-0.51,0.141 -0.396,0.255 -0.255,0.255C-0.114,0.255 0,0.141 0,0C0,-0.141 -0.114,-0.255 -0.255,-0.255" style="fill:rgb(0,102,155);fill-rule:nonzero;"/>
    </g>
    <g transform="matrix(0,-8.33333,-8.33333,0,423.776,21.7717)">
        <path d="M-0.255,-0.255C-0.396,-0.255 -0.51,-0.141 -0.51,0C-0.51,0.141 -0.396,0.255 -0.255,0.255C-0.114,0.255 0,0.141 0,0C0,-0.141 -0.114,-0.255 -0.255,-0.255" style="fill:rgb(0,102,155);fill-rule:nonzero;"/>
    </g>
    <g transform="matrix(0,-8.33333,-8.33333,0,423.772,67.1458)">
        <path d="M-0.255,-0.255C-0.396,-0.255 -0.51,-0.141 -0.51,0C-0.51,0.141 -0.396,0.255 -0.255,0.255C-0.114,0.255 0,0.141 0,0C0,-0.141 -0.114,-0.255 -0.255,-0.255" style="fill:rgb(0,102,155);fill-rule:nonzero;"/>
    </g>
    <g transform="matrix(0,-8.33333,-8.33333,0,395.102,71.4183)">
        <path d="M-0.255,-0.255C-0.396,-0.255 -0.51,-0.141 -0.51,0C-0.51,0.141 -0.396,0.255 -0.255,0.255C-0.114,0.255 0,0.141 0,0C0,-0.141 -0.114,-0.255 -0.255,-0.255" style="fill:rgb(0,102,155);fill-rule:nonzero;"/>
    </g>
    <g transform="matrix(0,-8.33333,-8.33333,0,395.105,83.6942)">
        <path d="M-0.255,-0.255C-0.396,-0.255 -0.51,-0.141 -0.51,0C-0.51,0.141 -0.396,0.255 -0.255,0.255C-0.114,0.255 0,0.141 0,0C0,-0.141 -0.114,-0.255 -0.255,-0.255" style="fill:rgb(0,102,155);fill-rule:nonzero;"/>
    </g>
    <g transform="matrix(0,-8.33333,-8.33333,0,423.776,87.9708)">
        <path d="M-0.255,-0.255C-0.396,-0.255 -0.51,-0.141 -0.51,0C-0.51,0.141 -0.396,0.255 -0.255,0.255C-0.114,0.255 0,0.141 0,0C0,-0.141 -0.114,-0.255 -0.255,-0.255" style="fill:rgb(0,102,155);fill-rule:nonzero;"/>
    </g>
    <g transform="matrix(0,-8.33333,-8.33333,0,373.841,71.41)">
        <path d="M-0.255,-0.255C-0.396,-0.255 -0.51,-0.141 -0.51,0C-0.51,0.141 -0.396,0.255 -0.255,0.255C-0.114,0.255 0,0.141 0,0C0,-0.141 -0.114,-0.255 -0.255,-0.255" style="fill:rgb(0,102,155);fill-rule:nonzero;"/>
    </g>
    <g transform="matrix(0,-8.33333,-8.33333,0,384.469,65.2775)">
        <path d="M-0.255,-0.255C-0.396,-0.255 -0.51,-0.141 -0.51,0C-0.51,0.141 -0.396,0.255 -0.255,0.255C-0.114,0.255 0,0.141 0,0C0,-0.141 -0.114,-0.255 -0.255,-0.255" style="fill:rgb(0,102,155);fill-rule:nonzero;"/>
    </g>
    <g transform="matrix(0,-8.33333,-8.33333,0,413.143,94.1067)">
        <path d="M-0.255,-0.255C-0.396,-0.255 -0.51,-0.141 -0.51,0C-0.51,0.141 -0.396,0.255 -0.255,0.255C-0.114,0.255 0,0.141 0,0C0,-0.141 -0.114,-0.255 -0.255,-0.255" style="fill:rgb(0,102,155);fill-rule:nonzero;"/>
    </g>
    <g transform="matrix(0,-8.33333,-8.33333,0,355.823,61.0058)">
        <path d="M-0.255,-0.255C-0.396,-0.255 -0.51,-0.141 -0.51,0C-0.51,0.141 -0.396,0.255 -0.255,0.255C-0.114,0.255 0,0.141 0,0C0,-0.141 -0.114,-0.255 -0.255,-0.255" style="fill:rgb(0,102,155);fill-rule:nonzero;"/>
    </g>
    <g transform="matrix(0,-8.33333,-8.33333,0,384.469,44.465)">
        <path d="M-0.255,-0.255C-0.396,-0.255 -0.51,-0.141 -0.51,0C-0.51,0.141 -0.396,0.255 -0.255,0.255C-0.114,0.255 0,0.141 0,0C0,-0.141 -0.114,-0.255 -0.255,-0.255" style="fill:rgb(0,102,155);fill-rule:nonzero;"/>
    </g>
    <g transform="matrix(0,-8.33333,-8.33333,0,395.102,38.325)">
        <path d="M-0.255,-0.255C-0.396,-0.255 -0.51,-0.141 -0.51,0C-0.51,0.141 -0.396,0.255 -0.255,0.255C-0.114,0.255 0,0.141 0,0C0,-0.141 -0.114,-0.255 -0.255,-0.255" style="fill:rgb(0,102,155);fill-rule:nonzero;"/>
    </g>
    <g transform="matrix(7.21721,-4.16609,-4.16609,-7.21721,359.63,54.6612)">
        <path d="M-0.167,0.624L2.329,0.624" style="fill:none;fill-rule:nonzero;stroke:rgb(0,102,155);stroke-width:0.12px;"/>
    </g>
    <g transform="matrix(4.1668,-7.2168,-7.2168,-4.1668,410.483,62.8109)">
        <path d="M-2.039,2.427C0.124,5.148 2.676,5.149 4.841,2.427" style="fill:none;fill-rule:nonzero;stroke:rgb(0,102,155);stroke-width:0.12px;"/>
    </g>
    <g transform="matrix(8.33333,0,0,8.33333,423.777,75.41)">
        <path d="M0,-3.683L0,-6.182L-3.441,-4.195C-3.441,-4.195 -1.276,-2.946 -1.276,2.499" style="fill:none;fill-rule:nonzero;stroke:rgb(0,102,155);stroke-width:0.12px;"/>
    </g>
    <g transform="matrix(8.33333,0,0,8.33333,395.107,32.4442)">
        <path d="M0,6.405L2.164,3.683L3.44,6.918C3.44,6.918 4.716,2.209 0,-0.513" style="fill:none;fill-rule:nonzero;stroke:rgb(0,102,155);stroke-width:0.12px;"/>
    </g>
    <g transform="matrix(-7.2166,-4.16715,-4.16715,7.2166,401.963,47.9877)">
        <path d="M1.389,4.342L3.887,4.342C3.375,0.904 1.165,-0.371 -2.071,0.903L0.653,3.067L1.902,0.905" style="fill:none;fill-rule:nonzero;stroke:rgb(0,102,155);stroke-width:0.12px;"/>
    </g>
    <g transform="matrix(-5.18736,6.52194,6.52194,5.18736,407.38,76.32)">
        <path d="M-2.822,-1.361L0.657,-1.361" style="fill:none;fill-rule:nonzero;stroke:rgb(0,102,155);stroke-width:0.12px;"/>
    </g>
    <g transform="matrix(8.33333,0,0,8.33333,71.6158,165.761)">
        <path d="M0,4.513C-0.411,4.286 -0.734,3.976 -0.97,3.579C-1.205,3.184 -1.323,2.742 -1.323,2.252C-1.323,1.769 -1.205,1.33 -0.97,0.933C-0.734,0.538 -0.411,0.226 0,0C0.41,-0.226 0.869,-0.34 1.376,-0.34C1.764,-0.34 2.115,-0.279 2.432,-0.158C2.75,-0.037 3.02,0.141 3.243,0.376L2.953,0.685C2.542,0.274 2.021,0.068 1.386,0.068C0.962,0.068 0.581,0.163 0.24,0.353C-0.101,0.544 -0.371,0.805 -0.566,1.138C-0.763,1.47 -0.861,1.841 -0.861,2.252C-0.861,2.663 -0.763,3.036 -0.566,3.371C-0.371,3.706 -0.101,3.97 0.24,4.16C0.581,4.35 0.962,4.445 1.386,4.445C2.021,4.445 2.542,4.241 2.953,3.829L3.243,4.128C3.013,4.363 2.74,4.543 2.423,4.667C2.106,4.791 1.757,4.853 1.376,4.853C0.869,4.853 0.41,4.74 0,4.513" style="fill:rgb(41,188,182);fill-rule:nonzero;"/>
    </g>
    <g transform="matrix(8.33333,0,0,8.33333,11.3417,79.2225)">
        <path d="M0,7.423C-0.565,7.259 -1.019,7.046 -1.361,6.783L-0.76,5.45C-0.431,5.69 -0.042,5.883 0.411,6.029C0.862,6.175 1.313,6.248 1.766,6.248C2.269,6.248 2.64,6.173 2.881,6.024C3.122,5.874 3.242,5.676 3.242,5.427C3.242,5.246 3.17,5.095 3.029,4.974C2.887,4.854 2.704,4.757 2.482,4.685C2.259,4.611 1.958,4.531 1.581,4.444C0.997,4.305 0.52,4.167 0.148,4.029C-0.224,3.89 -0.542,3.668 -0.809,3.361C-1.076,3.055 -1.208,2.647 -1.208,2.137C-1.208,1.693 -1.088,1.289 -0.847,0.929C-0.606,0.568 -0.245,0.282 0.24,0.07C0.726,-0.14 1.318,-0.246 2.017,-0.246C2.506,-0.246 2.983,-0.188 3.45,-0.071C3.916,0.046 4.324,0.213 4.674,0.432L4.128,1.776C3.42,1.376 2.713,1.174 2.007,1.174C1.511,1.174 1.145,1.256 0.908,1.416C0.671,1.576 0.552,1.788 0.552,2.049C0.552,2.312 0.689,2.507 0.962,2.634C1.235,2.762 1.652,2.888 2.214,3.012C2.798,3.15 3.274,3.289 3.646,3.427C4.019,3.565 4.337,3.784 4.603,4.083C4.869,4.382 5.002,4.787 5.002,5.297C5.002,5.734 4.879,6.133 4.636,6.493C4.391,6.855 4.025,7.141 3.537,7.352C3.048,7.564 2.455,7.669 1.755,7.669C1.15,7.669 0.565,7.587 0,7.423" style="fill:white;fill-rule:nonzero;"/>
    </g>
    <g transform="matrix(8.33333,0,0,8.33333,-99.2133,-737.808)">
        <path d="M19.251,99.699L20.956,99.699L20.956,105.582L19.251,105.582L19.251,99.699ZM19.338,98.606C19.142,98.424 19.042,98.198 19.042,97.927C19.042,97.658 19.142,97.432 19.338,97.25C19.535,97.068 19.79,96.976 20.103,96.976C20.416,96.976 20.671,97.064 20.868,97.239C21.065,97.414 21.163,97.633 21.163,97.895C21.163,98.179 21.065,98.414 20.868,98.6C20.671,98.786 20.416,98.879 20.103,98.879C19.79,98.879 19.535,98.788 19.338,98.606" style="fill:white;fill-rule:nonzero;"/>
    </g>
    <g transform="matrix(8.33333,0,0,8.33333,130.133,136.578)">
        <path d="M0,-4.658C0.449,-4.221 0.673,-3.572 0.673,-2.712L0.673,0.656L-1.033,0.656L-1.033,-2.45C-1.033,-2.916 -1.135,-3.264 -1.339,-3.493C-1.542,-3.723 -1.838,-3.838 -2.224,-3.838C-2.655,-3.838 -2.997,-3.705 -3.251,-3.439C-3.507,-3.173 -3.634,-2.777 -3.634,-2.253L-3.634,0.656L-5.339,0.656L-5.339,-5.227L-3.71,-5.227L-3.71,-4.538C-3.485,-4.785 -3.205,-4.977 -2.869,-5.112C-2.534,-5.246 -2.166,-5.314 -1.765,-5.314C-1.036,-5.314 -0.447,-5.095 0,-4.658" style="fill:white;fill-rule:nonzero;"/>
    </g>
    <g transform="matrix(8.33333,0,0,8.33333,172.251,103.531)">
        <path d="M0,3.358C0.226,3.223 0.386,3.025 0.481,2.762L0.481,2.16L-0.689,2.16C-1.388,2.16 -1.739,2.39 -1.739,2.849C-1.739,3.068 -1.653,3.241 -1.482,3.369C-1.31,3.496 -1.075,3.56 -0.776,3.56C-0.485,3.56 -0.226,3.492 0,3.358M1.455,-0.699C1.942,-0.266 2.187,0.389 2.187,1.264L2.187,4.621L0.591,4.621L0.591,3.888C0.27,4.435 -0.328,4.708 -1.202,4.708C-1.654,4.708 -2.047,4.631 -2.378,4.479C-2.709,4.325 -2.963,4.114 -3.138,3.845C-3.313,3.575 -3.4,3.269 -3.4,2.925C-3.4,2.379 -3.195,1.949 -2.783,1.635C-2.371,1.322 -1.735,1.165 -0.875,1.165L0.481,1.165C0.481,0.794 0.368,0.508 0.142,0.307C-0.084,0.107 -0.423,0.006 -0.875,0.006C-1.188,0.006 -1.496,0.056 -1.798,0.153C-2.101,0.252 -2.358,0.386 -2.569,0.553L-3.182,-0.64C-2.861,-0.865 -2.477,-1.04 -2.028,-1.163C-1.58,-1.288 -1.119,-1.35 -0.646,-1.35C0.266,-1.35 0.966,-1.132 1.455,-0.699" style="fill:white;fill-rule:nonzero;"/>
    </g>
    <g transform="matrix(8.33333,0,0,8.33333,236.167,124.592)">
        <path d="M0,0.339C0.28,0.044 0.421,-0.351 0.421,-0.847C0.421,-1.343 0.28,-1.739 0,-2.034C-0.281,-2.328 -0.64,-2.476 -1.076,-2.476C-1.514,-2.476 -1.874,-2.328 -2.154,-2.034C-2.434,-1.739 -2.574,-1.343 -2.574,-0.847C-2.574,-0.351 -2.434,0.044 -2.154,0.339C-1.874,0.634 -1.514,0.781 -1.076,0.781C-0.64,0.781 -0.281,0.634 0,0.339M0.711,-3.498C1.159,-3.247 1.511,-2.893 1.765,-2.438C2.021,-1.982 2.149,-1.452 2.149,-0.847C2.149,-0.242 2.021,0.288 1.765,0.743C1.511,1.198 1.159,1.552 0.711,1.803C0.263,2.055 -0.235,2.181 -0.782,2.181C-1.533,2.181 -2.123,1.944 -2.552,1.471L-2.552,4.214L-4.258,4.214L-4.258,-3.788L-2.629,-3.788L-2.629,-3.11C-2.206,-3.62 -1.59,-3.875 -0.782,-3.875C-0.235,-3.875 0.263,-3.75 0.711,-3.498" style="fill:white;fill-rule:nonzero;"/>
    </g>
    <g transform="matrix(8.33333,0,0,8.33333,266.269,93.7842)">
        <path d="M0,5.698C-0.466,5.577 -0.838,5.426 -1.115,5.244L-0.546,4.019C-0.284,4.187 0.033,4.323 0.405,4.429C0.776,4.535 1.141,4.587 1.498,4.587C2.22,4.587 2.58,4.409 2.58,4.052C2.58,3.884 2.482,3.764 2.285,3.691C2.088,3.618 1.786,3.556 1.377,3.505C0.896,3.432 0.499,3.348 0.186,3.253C-0.127,3.159 -0.398,2.991 -0.628,2.751C-0.857,2.51 -0.972,2.168 -0.972,1.722C-0.972,1.351 -0.866,1.021 -0.65,0.733C-0.435,0.445 -0.122,0.22 0.29,0.06C0.701,-0.1 1.187,-0.18 1.749,-0.18C2.165,-0.18 2.578,-0.135 2.99,-0.044C3.402,0.048 3.743,0.173 4.012,0.333L3.444,1.547C2.926,1.256 2.361,1.111 1.749,1.111C1.384,1.111 1.111,1.161 0.93,1.263C0.747,1.366 0.656,1.497 0.656,1.657C0.656,1.839 0.754,1.967 0.951,2.039C1.147,2.113 1.461,2.182 1.891,2.248C2.373,2.328 2.766,2.413 3.072,2.504C3.378,2.595 3.644,2.761 3.87,3.002C4.096,3.242 4.209,3.578 4.209,4.008C4.209,4.373 4.099,4.697 3.88,4.982C3.663,5.265 3.343,5.486 2.924,5.643C2.505,5.8 2.008,5.878 1.432,5.878C0.944,5.878 0.466,5.818 0,5.698" style="fill:white;fill-rule:nonzero;"/>
    </g>
    <g transform="matrix(8.33333,0,0,8.33333,322.93,128.552)">
        <path d="M0,-2.646C-0.271,-2.369 -0.412,-1.987 -0.427,-1.498L2.438,-2.056C2.357,-2.362 2.193,-2.606 1.946,-2.789C1.697,-2.971 1.398,-3.062 1.049,-3.062C0.619,-3.062 0.269,-2.924 0,-2.646M2.115,0.203C2.352,0.111 2.572,-0.033 2.777,-0.23L3.684,0.754C3.13,1.389 2.321,1.706 1.257,1.706C0.593,1.706 0.007,1.577 -0.504,1.317C-1.014,1.059 -1.408,0.7 -1.685,0.241C-1.961,-0.218 -2.1,-0.74 -2.1,-1.323C-2.1,-1.899 -1.963,-2.418 -1.69,-2.882C-1.417,-3.345 -1.041,-3.705 -0.563,-3.964C-0.086,-4.223 0.451,-4.352 1.049,-4.352C1.61,-4.352 2.12,-4.234 2.579,-3.997C3.039,-3.76 3.405,-3.417 3.678,-2.969C3.952,-2.521 4.088,-1.99 4.088,-1.378L-0.263,-0.536C-0.139,-0.244 0.056,-0.025 0.322,0.121C0.588,0.267 0.914,0.338 1.301,0.338C1.606,0.338 1.878,0.293 2.115,0.203" style="fill:white;fill-rule:nonzero;"/>
    </g>
</svg>
