<svg xmlns="http://www.w3.org/2000/svg" viewBox="0 0 339.64 125.7"><defs><style>.cls-1{fill:#fff;}.cls-2{fill:#bbc7d6;}.cls-3{fill:#00c7b1;}.cls-4{fill:#a77bca;}.cls-5{fill:#df1995;}.cls-6{fill:#41b6e6;}.cls-7{fill:#7a99ac;}.cls-8{fill:#006298;}</style></defs><g id="Layer_2" data-name="Layer 2"><g id="Layer_1-2" data-name="Layer 1"><polygon class="cls-1" points="235.54 32.28 235.54 28.42 236.39 27.93 236.4 27.93 236.4 8.67 225.47 2.65 209.04 12.13 209.04 13.12 205.7 15.04 204.85 14.55 204.85 14.55 188.42 24.04 188.41 36.66 204.84 46.15 204.84 46.15 205.69 45.66 209.03 47.58 209.03 48.56 209.03 48.56 225.46 58.05 236.39 51.73 236.4 32.77 236.39 32.77 235.54 32.28"/><path class="cls-2" d="M183.37,27.93v4.84a1.7,1.7,0,0,0,.85,1.47l4.19,2.42a1.69,1.69,0,0,0,1.71,0l4.19-2.42a1.7,1.7,0,0,0,.85-1.47V27.93a1.7,1.7,0,0,0-.85-1.47L190.12,24a1.72,1.72,0,0,0-1.7,0l-4.2,2.42A1.71,1.71,0,0,0,183.37,27.93Z"/><path class="cls-3" d="M224.61,27.93v4.84a1.7,1.7,0,0,0,.85,1.47l4.2,2.42a1.67,1.67,0,0,0,1.7,0l4.19-2.42a1.7,1.7,0,0,0,.85-1.47V27.93a1.7,1.7,0,0,0-.85-1.47L231.36,24a1.72,1.72,0,0,0-1.7,0l-4.19,2.42A1.7,1.7,0,0,0,224.61,27.93Z"/><path class="cls-4" d="M224.61,51.74v4.83a1.71,1.71,0,0,0,.85,1.48l4.19,2.42a1.72,1.72,0,0,0,1.7,0l4.19-2.42a1.71,1.71,0,0,0,.85-1.48V51.74a1.71,1.71,0,0,0-.85-1.48l-4.19-2.42a1.72,1.72,0,0,0-1.7,0l-4.19,2.42A1.71,1.71,0,0,0,224.61,51.74Z"/><path class="cls-5" d="M204,16v4.84a1.73,1.73,0,0,0,.85,1.47L209,24.76a1.74,1.74,0,0,0,1.71,0l4.19-2.42a1.73,1.73,0,0,0,.85-1.48V16a1.73,1.73,0,0,0-.85-1.48l-4.19-2.42a1.72,1.72,0,0,0-1.7,0l-4.2,2.42A1.73,1.73,0,0,0,204,16Z"/><path class="cls-6" d="M204,39.83v4.84a1.73,1.73,0,0,0,.85,1.48L209,48.56a1.67,1.67,0,0,0,1.7,0l4.19-2.42a1.68,1.68,0,0,0,.85-1.47V39.83a1.69,1.69,0,0,0-.86-1.47l-4.19-2.42a1.72,1.72,0,0,0-1.7,0l-4.19,2.42A1.71,1.71,0,0,0,204,39.83Z"/><path class="cls-7" d="M224.61,4.12V9a1.7,1.7,0,0,0,.85,1.47l4.2,2.42a1.67,1.67,0,0,0,1.7,0l4.19-2.42A1.7,1.7,0,0,0,236.4,9V4.12a1.7,1.7,0,0,0-.85-1.47L231.36.23a1.67,1.67,0,0,0-1.7,0l-4.19,2.42A1.69,1.69,0,0,0,224.61,4.12Z"/><path class="cls-8" d="M195.16,28.23A1.28,1.28,0,0,0,196.43,27a1.7,1.7,0,0,0,0-.22l6.79-3.92a1.24,1.24,0,0,0,.81.31,1.28,1.28,0,1,0-1.27-1.27,1.7,1.7,0,0,0,0,.22L196,26a1.24,1.24,0,0,0-.81-.32,1.28,1.28,0,0,0,0,2.56Z"/><path class="cls-8" d="M230.93,22.36V14.53a1.26,1.26,0,0,0,.85-1.19,1.28,1.28,0,0,0-2.55,0,1.26,1.26,0,0,0,.85,1.19v7.83a1.26,1.26,0,0,0-.85,1.19,1.28,1.28,0,1,0,1.7-1.19Z"/><path class="cls-8" d="M215.78,16.32A1.27,1.27,0,0,0,217.05,15a2.07,2.07,0,0,0,0-.22l6.79-3.92a1.24,1.24,0,0,0,.81.32,1.28,1.28,0,1,0-1.27-1.28,1.43,1.43,0,0,0,0,.22l-6.79,3.92a1.29,1.29,0,0,0-.81-.31,1.28,1.28,0,1,0,0,2.55Z"/><path class="cls-8" d="M230.5,38.43a1.28,1.28,0,1,0-1.19-1.7A7.72,7.72,0,0,0,226.9,38l-1.42-3.27a1.26,1.26,0,0,0,.41-.93,1.27,1.27,0,0,0-1.28-1.27,1.07,1.07,0,0,0-.31.06,17.75,17.75,0,0,0-1.7-2.16l1.65-2.23a1.17,1.17,0,0,0,.36.08A1.28,1.28,0,1,0,223.34,27a1.27,1.27,0,0,0,.23.69L222,29.77a17.28,17.28,0,0,0-7.28-4.26,15.59,15.59,0,0,1,.93-2.41l.14,0a1.28,1.28,0,1,0-1.28-1.27,1.25,1.25,0,0,0,.37.89,16.75,16.75,0,0,0-1,2.58,18.4,18.4,0,0,0-2.79-.42,1.25,1.25,0,0,0-2.41,0,17.4,17.4,0,0,0-13.2,7.64,1.2,1.2,0,0,0-.32-.06,1.28,1.28,0,1,0,0,2.55,1.24,1.24,0,0,0,.81-.32l6.79,3.92a.79.79,0,0,0,0,.22,1.33,1.33,0,1,0,.46-1L196.39,34a1.43,1.43,0,0,0,0-.22,1.23,1.23,0,0,0-.25-.72,16.51,16.51,0,0,1,12.53-7.28,1.28,1.28,0,0,0,2.35,0,16.15,16.15,0,0,1,2.6.39,18.28,18.28,0,0,0,0,8.45l-2.64.3a1.27,1.27,0,1,0-1.13,1.83,1.24,1.24,0,0,0,1.21-1l2.79-.32a17.76,17.76,0,0,0,1,2.54,1.25,1.25,0,0,0-.37.89,1.28,1.28,0,1,0,2.55,0,1.27,1.27,0,0,0-.23-.69l2.5-3.37,4.16-.48a1.27,1.27,0,0,0,1.13.72l.09,0,1.51,3.51a9.5,9.5,0,0,0-2.11,2.86,10.19,10.19,0,0,0-.3,8.41L217,45.87a1.43,1.43,0,0,0,0-.22,1.28,1.28,0,1,0-1.27,1.28,1.24,1.24,0,0,0,.81-.32l6.79,3.92a1,1,0,0,0,0,.23,1.28,1.28,0,1,0,1.28-1.28h0a9.38,9.38,0,0,1,.27-7.73,9.1,9.1,0,0,1,1.71-2.41l3.07,7.09a1.25,1.25,0,0,0-.41.92,1.28,1.28,0,1,0,1.27-1.27l-.08,0-3.18-7.35a6.88,6.88,0,0,1,2.08-1.12A1.28,1.28,0,0,0,230.5,38.43Zm-16-12.1a16.73,16.73,0,0,1,7,4.11L218.86,34l-4.36.5A17.58,17.58,0,0,1,214.48,26.33Zm1.66,11.32a1.17,1.17,0,0,0-.36-.08c-.05,0-.09,0-.14,0a16.57,16.57,0,0,1-.89-2.28l3.41-.4Zm5.93-6.56A16.84,16.84,0,0,1,223.6,33a1.22,1.22,0,0,0-.2.45l-3.38.39Z"/><path class="cls-3" d="M280.56,49.05V74.57H278V54.15L268,71.32h-1.27l-10-17.06V74.57h-2.58V49.05h2.22L267.37,68l11-18.92Z"/><path class="cls-3" d="M292.63,73.11a12.26,12.26,0,0,1-4.77-4.65,13.67,13.67,0,0,1,0-13.31,12.15,12.15,0,0,1,4.79-4.64,14,14,0,0,1,6.85-1.68,14.21,14.21,0,0,1,5.25,1,10.84,10.84,0,0,1,4.08,2.77l-1.71,1.71a10.14,10.14,0,0,0-7.54-3,11.13,11.13,0,0,0-5.51,1.38,10.16,10.16,0,0,0-3.88,3.79,11.1,11.1,0,0,0,0,10.79A10.16,10.16,0,0,0,294.07,71a11,11,0,0,0,5.51,1.39,10,10,0,0,0,7.54-3.07L308.83,71a11.15,11.15,0,0,1-4.1,2.79,14.86,14.86,0,0,1-12.1-.71Z"/><path class="cls-3" d="M336.94,49.05h2.7V74.56h-2.7Z"/><path class="cls-3" d="M320.86,51.38h-9V49.05h20.63v2.33h-9V74.56h-2.7Z"/><path class="cls-1" d="M33.8,43.66a4.08,4.08,0,0,1-1.14-3,4,4,0,0,1,1.14-2.91,4.28,4.28,0,0,1,5.88,0,4,4,0,0,1,1.14,2.91,4.08,4.08,0,0,1-1.14,3,4.31,4.31,0,0,1-5.88,0ZM33,48.42h7.58V74.56H33Z"/><path class="cls-1" d="M70.08,50.94q3,2.93,3,8.65v15H65.48V60.76a6.79,6.79,0,0,0-1.36-4.64,5,5,0,0,0-3.93-1.53,6,6,0,0,0-4.57,1.77,7.31,7.31,0,0,0-1.7,5.27V74.56H46.34V48.42h7.24v3.06a10,10,0,0,1,3.74-2.55,13,13,0,0,1,4.91-.9A10.79,10.79,0,0,1,70.08,50.94Z"/><path class="cls-1" d="M98.86,50.92q3.26,2.89,3.25,8.72V74.56H95V71.31c-1.43,2.43-4.08,3.64-8,3.64a12.42,12.42,0,0,1-5.23-1,7.74,7.74,0,0,1-3.37-2.82A7.32,7.32,0,0,1,77.28,67,6.8,6.8,0,0,1,80,61.3c1.83-1.4,4.65-2.09,8.47-2.09h6A4.81,4.81,0,0,0,93,55.39a6.63,6.63,0,0,0-4.52-1.33,13.36,13.36,0,0,0-4.1.65A10.8,10.8,0,0,0,81,56.49l-2.72-5.3a16.59,16.59,0,0,1,5.13-2.33A23,23,0,0,1,89.53,48Q95.6,48,98.86,50.92ZM92.39,69a4.88,4.88,0,0,0,2.14-2.65V63.63h-5.2q-4.67,0-4.66,3.06A2.74,2.74,0,0,0,85.81,69a5.1,5.1,0,0,0,3.13.85A6.57,6.57,0,0,0,92.39,69Z"/><path class="cls-1" d="M129.8,49.7a12,12,0,0,1,4.68,4.71,14.2,14.2,0,0,1,1.7,7.07,14.21,14.21,0,0,1-1.7,7.08,12,12,0,0,1-4.68,4.71A13.35,13.35,0,0,1,123.16,75a10.12,10.12,0,0,1-7.87-3.16V84h-7.58V48.41H115v3c1.88-2.26,4.62-3.4,8.21-3.4A13.35,13.35,0,0,1,129.8,49.7Zm-3.16,17.06a7.39,7.39,0,0,0,1.87-5.28,7.36,7.36,0,0,0-1.87-5.27,6.8,6.8,0,0,0-9.57,0,7.32,7.32,0,0,0-1.87,5.27,7.34,7.34,0,0,0,1.87,5.28,6.82,6.82,0,0,0,9.57,0Z"/><path class="cls-1" d="M144,74.14a16.5,16.5,0,0,1-5-2l2.52-5.44a16.18,16.18,0,0,0,4.23,1.82,17.68,17.68,0,0,0,4.86.7q4.81,0,4.81-2.38a1.69,1.69,0,0,0-1.31-1.6,19.28,19.28,0,0,0-4-.83,38.49,38.49,0,0,1-5.29-1.12,8.15,8.15,0,0,1-3.62-2.23,6.36,6.36,0,0,1-1.53-4.57,7.2,7.2,0,0,1,1.43-4.4,9.31,9.31,0,0,1,4.18-3A17.91,17.91,0,0,1,151.8,48a25.76,25.76,0,0,1,5.51.6,15.52,15.52,0,0,1,4.54,1.68l-2.52,5.39a15.14,15.14,0,0,0-7.53-1.94,7.73,7.73,0,0,0-3.65.68,2,2,0,0,0-1.21,1.75,1.72,1.72,0,0,0,1.31,1.7,23.45,23.45,0,0,0,4.18.92A46.54,46.54,0,0,1,157.68,60a7.9,7.9,0,0,1,3.54,2.22,6.22,6.22,0,0,1,1.51,4.47A6.9,6.9,0,0,1,161.27,71,9.36,9.36,0,0,1,157,73.9a18.83,18.83,0,0,1-6.63,1A25.17,25.17,0,0,1,144,74.14Z"/><path class="cls-1" d="M193.08,63.62H173.31a6.12,6.12,0,0,0,2.52,3.84,8.37,8.37,0,0,0,5,1.41,9.92,9.92,0,0,0,3.62-.61,8.67,8.67,0,0,0,2.94-1.92l4,4.38Q187.69,75,180.6,74.94a17.09,17.09,0,0,1-7.83-1.72,12.64,12.64,0,0,1-5.25-4.79,13.17,13.17,0,0,1-1.84-7,13.32,13.32,0,0,1,1.82-6.92,12.71,12.71,0,0,1,5-4.81,15.53,15.53,0,0,1,14.07-.07,12.06,12.06,0,0,1,4.89,4.74,14.11,14.11,0,0,1,1.77,7.16Q193.23,61.73,193.08,63.62Zm-17.73-8.4a6.19,6.19,0,0,0-2.14,4h12.88a6.31,6.31,0,0,0-2.14-4,6.39,6.39,0,0,0-4.28-1.48A6.51,6.51,0,0,0,175.35,55.22Z"/><path class="cls-1" d="M6.05,74.05a18.42,18.42,0,0,1-6-2.84l2.67-5.93a17.92,17.92,0,0,0,5.2,2.57,19.51,19.51,0,0,0,6,1,9.65,9.65,0,0,0,5-1,3,3,0,0,0,1.61-2.65,2.55,2.55,0,0,0-.95-2,7.15,7.15,0,0,0-2.43-1.28c-1-.33-2.33-.68-4-1.07A55.17,55.17,0,0,1,6.71,59a10.4,10.4,0,0,1-4.26-3A8,8,0,0,1,.68,50.55a9.49,9.49,0,0,1,1.6-5.37,10.8,10.8,0,0,1,4.84-3.81A19.67,19.67,0,0,1,15,40a26.08,26.08,0,0,1,6.37.78A18.86,18.86,0,0,1,26.82,43l-2.43,6A19,19,0,0,0,15,46.28a8.78,8.78,0,0,0-4.89,1.07A3.26,3.26,0,0,0,8.5,50.16a2.75,2.75,0,0,0,1.83,2.6,28,28,0,0,0,5.56,1.68,55.17,55.17,0,0,1,6.36,1.85,10.48,10.48,0,0,1,4.26,2.91,7.84,7.84,0,0,1,1.77,5.4,9.25,9.25,0,0,1-1.63,5.32,10.92,10.92,0,0,1-4.88,3.81,19.89,19.89,0,0,1-7.92,1.41A27.78,27.78,0,0,1,6.05,74.05Z"/><path class="cls-1" d="M2.37,108.33a4.46,4.46,0,0,1-1.68-.92l.54-1.14a4.35,4.35,0,0,0,1.49.85,5.47,5.47,0,0,0,1.88.33A3.34,3.34,0,0,0,6.49,107a1.33,1.33,0,0,0,.63-1.14,1.14,1.14,0,0,0-.34-.86,2.39,2.39,0,0,0-.85-.5,12.93,12.93,0,0,0-1.42-.39,14.38,14.38,0,0,1-1.86-.56,3,3,0,0,1-1.21-.85,2.26,2.26,0,0,1-.51-1.55,2.7,2.7,0,0,1,.43-1.48,3,3,0,0,1,1.31-1,5.33,5.33,0,0,1,2.17-.39,7.06,7.06,0,0,1,1.78.23,4.71,4.71,0,0,1,1.5.67l-.48,1.17a5.3,5.3,0,0,0-2.8-.83A3.19,3.19,0,0,0,3,99.94a1.39,1.39,0,0,0-.62,1.17,1.12,1.12,0,0,0,.35.85,2.5,2.5,0,0,0,.87.51q.53.18,1.41.39a14.36,14.36,0,0,1,1.85.55,3.1,3.1,0,0,1,1.2.85,2.21,2.21,0,0,1,.51,1.53,2.61,2.61,0,0,1-.44,1.46,2.8,2.8,0,0,1-1.33,1,5.41,5.41,0,0,1-2.18.39A7,7,0,0,1,2.37,108.33Z"/><path class="cls-1" d="M10.65,99.21a.87.87,0,1,1,.61.25A.81.81,0,0,1,10.65,99.21Zm-.09,1.64H12v7.72h-1.4Z"/><path class="cls-1" d="M26.7,101.62a3.37,3.37,0,0,1,.85,2.51v4.44h-1.4v-4.28a2.39,2.39,0,0,0-.52-1.69,1.89,1.89,0,0,0-1.48-.57,2.22,2.22,0,0,0-1.69.66,2.66,2.66,0,0,0-.63,1.9v4h-1.4v-4.28a2.44,2.44,0,0,0-.51-1.69,1.91,1.91,0,0,0-1.48-.57,2.24,2.24,0,0,0-1.7.66,2.7,2.7,0,0,0-.62,1.9v4h-1.4v-7.72h1.34V102a2.68,2.68,0,0,1,1.11-.91,3.65,3.65,0,0,1,1.56-.32,3.34,3.34,0,0,1,1.6.37,2.46,2.46,0,0,1,1.08,1.06,2.92,2.92,0,0,1,1.22-1,4,4,0,0,1,1.76-.38A3.12,3.12,0,0,1,26.7,101.62Z"/><path class="cls-1" d="M37.42,100.85v7.72H36.1v-1.16a2.8,2.8,0,0,1-1.12.92,3.48,3.48,0,0,1-1.51.33,3.35,3.35,0,0,1-2.43-.85,3.31,3.31,0,0,1-.89-2.52v-4.44h1.4v4.28a2.39,2.39,0,0,0,.54,1.7,2,2,0,0,0,1.54.58,2.34,2.34,0,0,0,1.75-.67,2.63,2.63,0,0,0,.64-1.9v-4Z"/><path class="cls-1" d="M40.18,97.75h1.4v10.82h-1.4Z"/><path class="cls-1" d="M49.61,101.56a3,3,0,0,1,.85,2.35v4.66H49.13v-1a2.2,2.2,0,0,1-1,.83,3.85,3.85,0,0,1-1.54.28,3.26,3.26,0,0,1-2.08-.62,2.16,2.16,0,0,1,0-3.29,3.62,3.62,0,0,1,2.36-.62h2.22v-.28a1.81,1.81,0,0,0-.52-1.39A2.23,2.23,0,0,0,47,102a4.1,4.1,0,0,0-1.34.23,3.46,3.46,0,0,0-1.11.6l-.58-1a4.11,4.11,0,0,1,1.43-.73,6,6,0,0,1,1.76-.26A3.53,3.53,0,0,1,49.61,101.56Zm-1.39,5.66a2,2,0,0,0,.84-1v-1.08H46.9c-1.18,0-1.78.4-1.78,1.2a1.08,1.08,0,0,0,.46.92,2.09,2.09,0,0,0,1.25.33A2.62,2.62,0,0,0,48.22,107.22Z"/><path class="cls-1" d="M60.48,97.75v10.82H59.14v-1.22a3.11,3.11,0,0,1-1.18,1,3.76,3.76,0,0,1-1.58.33,4,4,0,0,1-2-.49,3.53,3.53,0,0,1-1.39-1.4,4.42,4.42,0,0,1,0-4.12,3.55,3.55,0,0,1,1.39-1.38,4,4,0,0,1,2-.5,3.64,3.64,0,0,1,1.53.32,2.93,2.93,0,0,1,1.17.92V97.75Zm-2.65,9.34a2.39,2.39,0,0,0,.93-1,3.22,3.22,0,0,0,0-2.84,2.52,2.52,0,0,0-.93-1,2.87,2.87,0,0,0-2.67,0,2.52,2.52,0,0,0-.93,1,3.14,3.14,0,0,0,0,2.84,2.39,2.39,0,0,0,.93,1,2.72,2.72,0,0,0,2.67,0Z"/><path class="cls-1" d="M64.46,108.15A3.75,3.75,0,0,1,63,106.74a4.3,4.3,0,0,1,0-4.06,3.66,3.66,0,0,1,1.44-1.4,4.18,4.18,0,0,1,2.07-.51,4.11,4.11,0,0,1,2.06.51,3.57,3.57,0,0,1,1.43,1.4,4.22,4.22,0,0,1,0,4.06,3.66,3.66,0,0,1-1.43,1.41,4.11,4.11,0,0,1-2.06.51A4.18,4.18,0,0,1,64.46,108.15Zm3.41-1.06a2.31,2.31,0,0,0,.92-1,3.14,3.14,0,0,0,0-2.84,2.43,2.43,0,0,0-.92-1,2.72,2.72,0,0,0-1.34-.33,2.68,2.68,0,0,0-1.33.33,2.48,2.48,0,0,0-.94,1,3.14,3.14,0,0,0,0,2.84,2.35,2.35,0,0,0,.94,1,2.59,2.59,0,0,0,1.33.35A2.63,2.63,0,0,0,67.87,107.09Z"/><path class="cls-1" d="M75,101.12a4,4,0,0,1,1.74-.35v1.36l-.33,0a2.36,2.36,0,0,0-1.78.68,2.7,2.7,0,0,0-.65,1.93v3.85h-1.4v-7.72h1.34v1.29A2.43,2.43,0,0,1,75,101.12Z"/><path class="cls-1" d="M91.63,98.37v10.2h-1.2L84.31,101v7.61H82.85V98.37h1.2L90.17,106V98.37Z"/><path class="cls-1" d="M99.85,101.56a3,3,0,0,1,.85,2.35v4.66H99.37v-1a2.2,2.2,0,0,1-1,.83,3.85,3.85,0,0,1-1.54.28,3.26,3.26,0,0,1-2.08-.62,2.16,2.16,0,0,1,0-3.29,3.62,3.62,0,0,1,2.36-.62H99.3v-.28a1.81,1.81,0,0,0-.52-1.39,2.23,2.23,0,0,0-1.55-.48,4.1,4.1,0,0,0-1.34.23,3.46,3.46,0,0,0-1.11.6l-.58-1a4.11,4.11,0,0,1,1.43-.73,6,6,0,0,1,1.76-.26A3.53,3.53,0,0,1,99.85,101.56Zm-1.39,5.66a2,2,0,0,0,.84-1v-1.08H97.14c-1.18,0-1.78.4-1.78,1.2a1.09,1.09,0,0,0,.45.92,2.14,2.14,0,0,0,1.26.33A2.62,2.62,0,0,0,98.46,107.22Z"/><path class="cls-1" d="M104.69,108.15a3.71,3.71,0,0,1-1.45-1.41,4.15,4.15,0,0,1,0-4.06,3.62,3.62,0,0,1,1.45-1.4,4.31,4.31,0,0,1,2.11-.51,3.94,3.94,0,0,1,1.87.43,3,3,0,0,1,1.28,1.22l-1.07.69a2.41,2.41,0,0,0-.9-.84,2.65,2.65,0,0,0-1.2-.27,2.79,2.79,0,0,0-1.36.33,2.44,2.44,0,0,0-1,1,2.87,2.87,0,0,0-.34,1.42,3,3,0,0,0,.34,1.44,2.35,2.35,0,0,0,1,.95,2.8,2.8,0,0,0,1.36.34,2.65,2.65,0,0,0,1.2-.28,2.38,2.38,0,0,0,.9-.83L110,107a3.1,3.1,0,0,1-1.28,1.23,3.94,3.94,0,0,1-1.87.43A4.31,4.31,0,0,1,104.69,108.15Z"/><path class="cls-1" d="M111.93,99.21a.87.87,0,0,1,0-1.22.88.88,0,0,1,1.23,0,.86.86,0,0,1-.62,1.47A.82.82,0,0,1,111.93,99.21Zm-.09,1.64h1.4v7.72h-1.4Z"/><path class="cls-1" d="M117.24,108.15a3.75,3.75,0,0,1-1.44-1.41,4.3,4.3,0,0,1,0-4.06,3.66,3.66,0,0,1,1.44-1.4,4.18,4.18,0,0,1,2.07-.51,4.11,4.11,0,0,1,2.06.51,3.57,3.57,0,0,1,1.43,1.4,4.22,4.22,0,0,1,0,4.06,3.66,3.66,0,0,1-1.43,1.41,4.11,4.11,0,0,1-2.06.51A4.18,4.18,0,0,1,117.24,108.15Zm3.4-1.06a2.27,2.27,0,0,0,.93-1,3.14,3.14,0,0,0,0-2.84,2.39,2.39,0,0,0-.93-1,2.68,2.68,0,0,0-1.33-.33,2.72,2.72,0,0,0-1.34.33,2.52,2.52,0,0,0-.93,1,3.14,3.14,0,0,0,0,2.84,2.39,2.39,0,0,0,.93,1,2.63,2.63,0,0,0,1.34.35A2.59,2.59,0,0,0,120.64,107.09Z"/><path class="cls-1" d="M131.81,101.63a3.33,3.33,0,0,1,.87,2.5v4.44h-1.4v-4.28a2.35,2.35,0,0,0-.54-1.69,2,2,0,0,0-1.54-.57,2.43,2.43,0,0,0-1.8.66,2.62,2.62,0,0,0-.65,1.9v4h-1.4v-7.72h1.34V102a2.74,2.74,0,0,1,1.14-.92,4.07,4.07,0,0,1,1.64-.32A3.16,3.16,0,0,1,131.81,101.63Z"/><path class="cls-1" d="M140.64,101.56a3,3,0,0,1,.85,2.35v4.66h-1.33v-1a2.2,2.2,0,0,1-1,.83,3.85,3.85,0,0,1-1.54.28,3.26,3.26,0,0,1-2.08-.62,2.16,2.16,0,0,1,0-3.29,3.65,3.65,0,0,1,2.37-.62h2.21v-.28a1.81,1.81,0,0,0-.52-1.39A2.23,2.23,0,0,0,138,102a4.1,4.1,0,0,0-1.34.23,3.46,3.46,0,0,0-1.11.6l-.58-1a4.11,4.11,0,0,1,1.43-.73,6,6,0,0,1,1.76-.26A3.53,3.53,0,0,1,140.64,101.56Zm-1.39,5.66a2,2,0,0,0,.84-1v-1.08h-2.16c-1.18,0-1.78.4-1.78,1.2a1.08,1.08,0,0,0,.46.92,2.09,2.09,0,0,0,1.25.33A2.62,2.62,0,0,0,139.25,107.22Z"/><path class="cls-1" d="M144.17,97.75h1.4v10.82h-1.4Z"/><path class="cls-1" d="M159.63,97.75v10.82h-1.34v-1.22a3,3,0,0,1-1.18,1,3.71,3.71,0,0,1-1.57.33,4.11,4.11,0,0,1-2-.49,3.53,3.53,0,0,1-1.39-1.4,4.49,4.49,0,0,1,0-4.12,3.55,3.55,0,0,1,1.39-1.38,4.12,4.12,0,0,1,2-.5,3.71,3.71,0,0,1,1.53.32,3,3,0,0,1,1.16.92V97.75ZM157,107.09a2.27,2.27,0,0,0,.93-1,3.14,3.14,0,0,0,0-2.84,2.39,2.39,0,0,0-.93-1,2.7,2.7,0,0,0-1.33-.33,2.68,2.68,0,0,0-1.33.33,2.48,2.48,0,0,0-.94,1,3.14,3.14,0,0,0,0,2.84,2.35,2.35,0,0,0,.94,1,2.59,2.59,0,0,0,1.33.35A2.62,2.62,0,0,0,157,107.09Z"/><path class="cls-1" d="M169.33,105.18h-6.27a2.46,2.46,0,0,0,.9,1.64,2.93,2.93,0,0,0,1.9.62,2.84,2.84,0,0,0,2.23-.94l.77.91a3.3,3.3,0,0,1-1.3.93,4.61,4.61,0,0,1-1.74.32,4.67,4.67,0,0,1-2.18-.5,3.61,3.61,0,0,1-1.46-1.41,4,4,0,0,1-.52-2,4.18,4.18,0,0,1,.5-2,3.6,3.6,0,0,1,1.39-1.4,3.9,3.9,0,0,1,2-.51,3.84,3.84,0,0,1,2,.51,3.57,3.57,0,0,1,1.35,1.4,4.25,4.25,0,0,1,.49,2.07A4,4,0,0,1,169.33,105.18Zm-5.48-2.61a2.46,2.46,0,0,0-.79,1.6h5a2.49,2.49,0,0,0-.8-1.6,2.4,2.4,0,0,0-1.68-.62A2.45,2.45,0,0,0,163.85,102.57Z"/><path class="cls-1" d="M182.7,99.31a3.57,3.57,0,0,1,0,5.23,4.72,4.72,0,0,1-3.12.94h-2.52v3.09H175.6V98.37h4A4.72,4.72,0,0,1,182.7,99.31Zm-1,4.31a2,2,0,0,0,.73-1.7,2.07,2.07,0,0,0-.73-1.7,3.29,3.29,0,0,0-2.11-.59h-2.48v4.58h2.48A3.24,3.24,0,0,0,181.65,103.62Z"/><path class="cls-1" d="M187.08,108.15a3.75,3.75,0,0,1-1.44-1.41,4.3,4.3,0,0,1,0-4.06,3.66,3.66,0,0,1,1.44-1.4,4.18,4.18,0,0,1,2.07-.51,4.11,4.11,0,0,1,2.06.51,3.57,3.57,0,0,1,1.43,1.4,4.22,4.22,0,0,1,0,4.06,3.66,3.66,0,0,1-1.43,1.41,4.11,4.11,0,0,1-2.06.51A4.18,4.18,0,0,1,187.08,108.15Zm3.41-1.06a2.31,2.31,0,0,0,.92-1,3.14,3.14,0,0,0,0-2.84,2.43,2.43,0,0,0-.92-1,2.72,2.72,0,0,0-1.34-.33,2.68,2.68,0,0,0-1.33.33,2.48,2.48,0,0,0-.94,1,3.14,3.14,0,0,0,0,2.84,2.35,2.35,0,0,0,.94,1,2.59,2.59,0,0,0,1.33.35A2.63,2.63,0,0,0,190.49,107.09Z"/><path class="cls-1" d="M195.19,97.75h1.4v10.82h-1.4Z"/><path class="cls-1" d="M200.93,97.83h1.78l-2.45,1.89H199Zm-1.59,3h1.4v7.72h-1.4Z"/><path class="cls-1" d="M207.85,108.12a2,2,0,0,1-.76.4,2.93,2.93,0,0,1-.94.14,2.49,2.49,0,0,1-1.8-.62,2.4,2.4,0,0,1-.65-1.8V102h-1.31v-1.15h1.31v-1.7h1.41v1.7h2.21V102h-2.21v4.18a1.34,1.34,0,0,0,.31,1,1.15,1.15,0,0,0,.9.34,1.7,1.7,0,0,0,1.09-.36Z"/><path class="cls-1" d="M209.71,99.21a.87.87,0,0,1,0-1.22.88.88,0,0,1,1.23,0,.87.87,0,0,1,0,1.22.88.88,0,0,1-1.23,0Zm-.09,1.64H211v7.72h-1.4Z"/><path class="cls-1" d="M215,108.15a3.78,3.78,0,0,1-1.45-1.41,4.22,4.22,0,0,1,0-4.06,3.68,3.68,0,0,1,1.45-1.4,4.31,4.31,0,0,1,2.11-.51,3.91,3.91,0,0,1,1.87.43,3,3,0,0,1,1.28,1.22l-1.06.69a2.51,2.51,0,0,0-.91-.84,2.63,2.63,0,0,0-1.19-.27,2.83,2.83,0,0,0-1.37.33,2.5,2.5,0,0,0-1,1,3,3,0,0,0-.34,1.42,3.06,3.06,0,0,0,.34,1.44,2.41,2.41,0,0,0,1,.95,2.84,2.84,0,0,0,1.37.34,2.64,2.64,0,0,0,1.19-.28,2.48,2.48,0,0,0,.91-.83l1.06.67a3,3,0,0,1-1.28,1.23,3.91,3.91,0,0,1-1.87.43A4.31,4.31,0,0,1,215,108.15Z"/><path class="cls-1" d="M227.47,101.56a3,3,0,0,1,.85,2.35v4.66H227v-1a2.2,2.2,0,0,1-1,.83,3.85,3.85,0,0,1-1.54.28,3.26,3.26,0,0,1-2.08-.62,2.16,2.16,0,0,1,0-3.29,3.62,3.62,0,0,1,2.36-.62h2.22v-.28a1.81,1.81,0,0,0-.52-1.39,2.23,2.23,0,0,0-1.55-.48,4.1,4.1,0,0,0-1.34.23,3.46,3.46,0,0,0-1.11.6l-.58-1a4.11,4.11,0,0,1,1.43-.73,6,6,0,0,1,1.76-.26A3.53,3.53,0,0,1,227.47,101.56Zm-1.39,5.66a2,2,0,0,0,.84-1v-1.08h-2.16c-1.18,0-1.78.4-1.78,1.2a1.09,1.09,0,0,0,.45.92,2.14,2.14,0,0,0,1.26.33A2.62,2.62,0,0,0,226.08,107.22Z"/><path class="cls-1" d="M231.4,108.41a4,4,0,0,1-1.37-.65l.58-1.11a4.07,4.07,0,0,0,1.24.58,5,5,0,0,0,1.47.22c1.23,0,1.84-.35,1.84-1a.66.66,0,0,0-.25-.55,1.44,1.44,0,0,0-.62-.3,9.57,9.57,0,0,0-1-.21,10,10,0,0,1-1.53-.34,2.3,2.3,0,0,1-1-.64,1.81,1.81,0,0,1-.43-1.27,2,2,0,0,1,.88-1.68,3.85,3.85,0,0,1,2.35-.64A6.76,6.76,0,0,1,235,101a4.3,4.3,0,0,1,1.27.51l-.6,1.11a4,4,0,0,0-2.23-.61,2.51,2.51,0,0,0-1.35.29.88.88,0,0,0-.47.77.75.75,0,0,0,.26.6,1.65,1.65,0,0,0,.65.32c.26.07.62.15,1.09.23a12.85,12.85,0,0,1,1.51.35,2.25,2.25,0,0,1,1,.62,1.69,1.69,0,0,1,.41,1.22,1.93,1.93,0,0,1-.9,1.67,4.16,4.16,0,0,1-2.44.62A6.45,6.45,0,0,1,231.4,108.41Z"/><path class="cls-1" d="M2.37,125.34a4.76,4.76,0,0,1-1.68-.92l.54-1.14a4.35,4.35,0,0,0,1.49.85,5.47,5.47,0,0,0,1.88.33A3.34,3.34,0,0,0,6.49,124a1.33,1.33,0,0,0,.63-1.15,1.12,1.12,0,0,0-.34-.85,2.25,2.25,0,0,0-.85-.5c-.33-.12-.81-.25-1.42-.4a14.58,14.58,0,0,1-1.86-.55,3.13,3.13,0,0,1-1.21-.85,2.29,2.29,0,0,1-.51-1.56,2.69,2.69,0,0,1,.43-1.47,3,3,0,0,1,1.31-1,5.33,5.33,0,0,1,2.17-.39,6.64,6.64,0,0,1,1.78.23,4.71,4.71,0,0,1,1.5.67l-.48,1.17a4.85,4.85,0,0,0-1.37-.62,5.1,5.1,0,0,0-1.43-.21A3.19,3.19,0,0,0,3,117a1.39,1.39,0,0,0-.62,1.17,1.14,1.14,0,0,0,.35.85,2.5,2.5,0,0,0,.87.51q.53.18,1.41.39a12.92,12.92,0,0,1,1.85.55,3,3,0,0,1,1.2.85,2.18,2.18,0,0,1,.51,1.53,2.61,2.61,0,0,1-.44,1.46,2.86,2.86,0,0,1-1.33,1,5.41,5.41,0,0,1-2.18.39A7,7,0,0,1,2.37,125.34Z"/><path class="cls-1" d="M17.52,122.18H11.25a2.36,2.36,0,0,0,.89,1.64,2.91,2.91,0,0,0,1.91.63,2.89,2.89,0,0,0,2.23-.94l.77.91a3.6,3.6,0,0,1-1.3.93,5,5,0,0,1-3.92-.18,3.7,3.7,0,0,1-1.47-1.41,4.35,4.35,0,0,1,0-4.07,3.62,3.62,0,0,1,1.39-1.41,4,4,0,0,1,2-.5,3.92,3.92,0,0,1,2,.5,3.62,3.62,0,0,1,1.36,1.41,4.34,4.34,0,0,1,.49,2.07A3.73,3.73,0,0,1,17.52,122.18ZM12,119.57a2.46,2.46,0,0,0-.79,1.61H16.2a2.46,2.46,0,0,0-.79-1.6,2.4,2.4,0,0,0-1.68-.62A2.45,2.45,0,0,0,12,119.57Z"/><path class="cls-1" d="M23.92,125.13a2.2,2.2,0,0,1-.76.4,3.22,3.22,0,0,1-.93.14,2.48,2.48,0,0,1-1.81-.63,2.38,2.38,0,0,1-.64-1.79V119H18.46v-1.15h1.32v-1.69h1.4v1.69h2.21V119H21.18v4.19a1.34,1.34,0,0,0,.31,1,1.15,1.15,0,0,0,.9.34,1.64,1.64,0,0,0,1.09-.37Z"/><path class="cls-1" d="M26.67,125.16a3.66,3.66,0,0,1-1.43-1.41,4.24,4.24,0,0,1,0-4.07,3.63,3.63,0,0,1,1.43-1.4,4.35,4.35,0,0,1,2.08-.5,4.27,4.27,0,0,1,2.06.5,3.7,3.7,0,0,1,1.43,1.4,4.24,4.24,0,0,1,0,4.07,3.73,3.73,0,0,1-1.43,1.41,4.17,4.17,0,0,1-2.06.51A4.24,4.24,0,0,1,26.67,125.16Zm3.41-1.06a2.52,2.52,0,0,0,.93-1,3,3,0,0,0,.33-1.42,3,3,0,0,0-.33-1.43,2.43,2.43,0,0,0-.93-1,2.68,2.68,0,0,0-1.33-.34,2.72,2.72,0,0,0-1.34.34,2.43,2.43,0,0,0-.93,1,2.91,2.91,0,0,0-.34,1.43,2.87,2.87,0,0,0,.34,1.42,2.52,2.52,0,0,0,.93,1,2.63,2.63,0,0,0,1.34.35A2.59,2.59,0,0,0,30.08,124.1Z"/><path class="cls-1" d="M37.2,118.13a4,4,0,0,1,1.74-.35v1.36l-.32,0a2.37,2.37,0,0,0-1.79.68,2.7,2.7,0,0,0-.65,1.93v3.85h-1.4v-7.73h1.34v1.3A2.42,2.42,0,0,1,37.2,118.13Z"/><path class="cls-1" d="M40.83,116.22a.86.86,0,0,1,.62-1.47.84.84,0,0,1,.86.86.82.82,0,0,1-.25.61.85.85,0,0,1-.61.25A.87.87,0,0,1,40.83,116.22Zm-.08,1.63h1.4v7.73h-1.4Z"/><path class="cls-1" d="M50.18,118.57a3,3,0,0,1,.85,2.35v4.66H49.7v-1a2.1,2.1,0,0,1-1,.82,3.78,3.78,0,0,1-1.54.29,3.2,3.2,0,0,1-2.07-.63,2.16,2.16,0,0,1,0-3.29,3.68,3.68,0,0,1,2.36-.62h2.22v-.27a1.79,1.79,0,0,0-.53-1.39,2.2,2.2,0,0,0-1.54-.48,4.1,4.1,0,0,0-1.34.23,3.46,3.46,0,0,0-1.11.6l-.59-1A4.29,4.29,0,0,1,46,118a6.06,6.06,0,0,1,1.77-.26A3.48,3.48,0,0,1,50.18,118.57Zm-1.4,5.66a2.06,2.06,0,0,0,.85-1v-1.08H47.47c-1.19,0-1.78.4-1.78,1.2a1.11,1.11,0,0,0,.45.92,2.1,2.1,0,0,0,1.26.33A2.56,2.56,0,0,0,48.78,124.23Z"/><path class="cls-1" d="M53.8,116.22a.88.88,0,0,1,0-1.23A.87.87,0,0,1,55,116.22a.88.88,0,0,1-1.23,0Zm-.09,1.63h1.4v7.73h-1.4Z"/><path class="cls-1" d="M58.26,125.41a4.07,4.07,0,0,1-1.37-.64l.59-1.11a4.32,4.32,0,0,0,1.24.58,4.9,4.9,0,0,0,1.47.22c1.22,0,1.84-.35,1.84-1a.69.69,0,0,0-.25-.55,1.5,1.5,0,0,0-.62-.3c-.25-.07-.6-.14-1.06-.22a10.22,10.22,0,0,1-1.52-.33,2.37,2.37,0,0,1-1-.64,1.8,1.8,0,0,1-.42-1.27,2,2,0,0,1,.87-1.69,4,4,0,0,1,2.35-.63,6.32,6.32,0,0,1,1.55.19,4.42,4.42,0,0,1,1.27.51l-.6,1.11a4,4,0,0,0-2.23-.62,2.52,2.52,0,0,0-1.36.3.87.87,0,0,0-.46.77.73.73,0,0,0,.26.6,1.72,1.72,0,0,0,.65.32c.25.07.62.15,1.08.23a10.42,10.42,0,0,1,1.51.35,2.26,2.26,0,0,1,1,.61,1.77,1.77,0,0,1,.4,1.23,1.92,1.92,0,0,1-.89,1.67,4.27,4.27,0,0,1-2.45.62A6.51,6.51,0,0,1,58.26,125.41Z"/><path class="cls-1" d="M76.23,122.18H70a2.38,2.38,0,0,0,.9,1.64,3.14,3.14,0,0,0,4.13-.31l.77.91a3.52,3.52,0,0,1-1.3.93,5,5,0,0,1-3.92-.18,3.61,3.61,0,0,1-1.46-1.41,4,4,0,0,1-.52-2,4.15,4.15,0,0,1,.5-2,3.69,3.69,0,0,1,1.39-1.41,4,4,0,0,1,2-.5,3.9,3.9,0,0,1,2,.5,3.62,3.62,0,0,1,1.36,1.41,4.22,4.22,0,0,1,.49,2.07A3.73,3.73,0,0,1,76.23,122.18Zm-5.48-2.61a2.51,2.51,0,0,0-.79,1.61h5a2.52,2.52,0,0,0-.8-1.6,2.4,2.4,0,0,0-1.68-.62A2.49,2.49,0,0,0,70.75,119.57Z"/><path class="cls-1" d="M89.91,124.31v1.27H82.5V115.37h7.21v1.27H84v3.14h5.12V121H84v3.29Z"/><path class="cls-1" d="M104.14,118.62a3.41,3.41,0,0,1,.85,2.51v4.45h-1.4v-4.29a2.41,2.41,0,0,0-.52-1.69,1.89,1.89,0,0,0-1.48-.57,2.23,2.23,0,0,0-1.69.67,2.64,2.64,0,0,0-.63,1.9v4h-1.4v-4.29a2.41,2.41,0,0,0-.52-1.69,1.87,1.87,0,0,0-1.47-.57,2.24,2.24,0,0,0-1.7.67,2.64,2.64,0,0,0-.62,1.9v4H92.15v-7.73H93.5V119a2.76,2.76,0,0,1,1.11-.91,3.65,3.65,0,0,1,1.56-.31,3.46,3.46,0,0,1,1.6.36,2.53,2.53,0,0,1,1.08,1.07,2.92,2.92,0,0,1,1.22-1,4,4,0,0,1,1.75-.38A3.16,3.16,0,0,1,104.14,118.62Z"/><path class="cls-1" d="M107.68,116.1a.85.85,0,0,1-.27-.64.89.89,0,0,1,.27-.65.91.91,0,0,1,.68-.27,1,1,0,0,1,.68.26.83.83,0,0,1,.27.63,1,1,0,0,1-1.63.67Zm0,1.75h1.4v7.73h-1.4Z"/><path class="cls-1" d="M112.21,125.41a4,4,0,0,1-1.37-.64l.58-1.11a4.32,4.32,0,0,0,1.24.58,4.94,4.94,0,0,0,1.47.22c1.23,0,1.84-.35,1.84-1a.66.66,0,0,0-.25-.55,1.44,1.44,0,0,0-.62-.3c-.25-.07-.6-.14-1-.22a10.11,10.11,0,0,1-1.53-.33,2.39,2.39,0,0,1-1-.64,1.76,1.76,0,0,1-.43-1.27,2,2,0,0,1,.88-1.69,3.92,3.92,0,0,1,2.35-.63,6.24,6.24,0,0,1,1.54.19,4.3,4.3,0,0,1,1.27.51l-.6,1.11a4,4,0,0,0-2.23-.62,2.5,2.5,0,0,0-1.35.3.88.88,0,0,0-.47.77.76.76,0,0,0,.26.6,1.8,1.8,0,0,0,.65.32c.26.07.62.15,1.09.23a11.1,11.1,0,0,1,1.51.35,2.23,2.23,0,0,1,1,.61,1.77,1.77,0,0,1,.41,1.23,1.93,1.93,0,0,1-.9,1.67,4.23,4.23,0,0,1-2.44.62A6.46,6.46,0,0,1,112.21,125.41Z"/><path class="cls-1" d="M119.6,125.41a4.07,4.07,0,0,1-1.37-.64l.58-1.11a4.45,4.45,0,0,0,1.24.58,5,5,0,0,0,1.48.22c1.22,0,1.84-.35,1.84-1a.69.69,0,0,0-.25-.55,1.56,1.56,0,0,0-.62-.3c-.25-.07-.6-.14-1.06-.22a10.22,10.22,0,0,1-1.52-.33,2.37,2.37,0,0,1-1-.64,1.8,1.8,0,0,1-.42-1.27,2,2,0,0,1,.87-1.69,4,4,0,0,1,2.35-.63,6.32,6.32,0,0,1,1.55.19,4.42,4.42,0,0,1,1.27.51l-.6,1.11a4,4,0,0,0-2.23-.62,2.52,2.52,0,0,0-1.36.3.87.87,0,0,0-.46.77.73.73,0,0,0,.26.6,1.72,1.72,0,0,0,.65.32c.25.07.62.15,1.08.23a10.75,10.75,0,0,1,1.51.35,2.26,2.26,0,0,1,1,.61,1.77,1.77,0,0,1,.4,1.23,1.92,1.92,0,0,1-.89,1.67,4.27,4.27,0,0,1-2.45.62A6.51,6.51,0,0,1,119.6,125.41Z"/><path class="cls-1" d="M127.84,125.16a3.66,3.66,0,0,1-1.43-1.41,4.24,4.24,0,0,1,0-4.07,3.63,3.63,0,0,1,1.43-1.4,4.53,4.53,0,0,1,4.14,0,3.77,3.77,0,0,1,1.43,1.4,4.32,4.32,0,0,1,0,4.07,3.79,3.79,0,0,1-1.43,1.41,4.46,4.46,0,0,1-4.14,0Zm3.41-1.06a2.43,2.43,0,0,0,.92-1,2.87,2.87,0,0,0,.34-1.42,2.91,2.91,0,0,0-.34-1.43,2.34,2.34,0,0,0-.92-1,2.72,2.72,0,0,0-1.34-.34,2.68,2.68,0,0,0-1.33.34,2.45,2.45,0,0,0-.94,1,3,3,0,0,0-.34,1.43,3,3,0,0,0,.34,1.42,2.55,2.55,0,0,0,.94,1,2.59,2.59,0,0,0,1.33.35A2.63,2.63,0,0,0,131.25,124.1Zm-.94-7.56a5.37,5.37,0,0,1-.63-.44,3.47,3.47,0,0,0-.38-.3.66.66,0,0,0-.84.15,1,1,0,0,0-.22.66h-.79a2.23,2.23,0,0,1,.41-1.3,1.25,1.25,0,0,1,1-.48,1.17,1.17,0,0,1,.62.16,4.94,4.94,0,0,1,.62.44,3,3,0,0,0,.39.3.6.6,0,0,0,.31.1.64.64,0,0,0,.52-.24,1,1,0,0,0,.22-.64h.79a2,2,0,0,1-.42,1.26,1.22,1.22,0,0,1-1,.48A1.2,1.2,0,0,1,130.31,116.54Z"/><path class="cls-1" d="M142.91,122.18h-6.28a2.41,2.41,0,0,0,.9,1.64,3.16,3.16,0,0,0,4.14-.31l.77.91a3.55,3.55,0,0,1-1.31.93,4.57,4.57,0,0,1-1.74.32,4.63,4.63,0,0,1-2.17-.5,3.7,3.7,0,0,1-1.47-1.41,4.35,4.35,0,0,1,0-4.07,3.62,3.62,0,0,1,1.39-1.41,4,4,0,0,1,2-.5,3.92,3.92,0,0,1,2,.5,3.62,3.62,0,0,1,1.36,1.41,4.34,4.34,0,0,1,.49,2.07A3.73,3.73,0,0,1,142.91,122.18Zm-5.48-2.61a2.52,2.52,0,0,0-.8,1.61h5a2.46,2.46,0,0,0-.79-1.6,2.4,2.4,0,0,0-1.68-.62A2.45,2.45,0,0,0,137.43,119.57Z"/><path class="cls-1" d="M145.36,125.41a4,4,0,0,1-1.38-.64l.59-1.11a4.32,4.32,0,0,0,1.24.58,4.94,4.94,0,0,0,1.47.22c1.23,0,1.84-.35,1.84-1a.66.66,0,0,0-.25-.55,1.44,1.44,0,0,0-.62-.3c-.25-.07-.6-.14-1.06-.22a10.22,10.22,0,0,1-1.52-.33,2.39,2.39,0,0,1-1-.64,1.76,1.76,0,0,1-.43-1.27,2,2,0,0,1,.88-1.69,3.92,3.92,0,0,1,2.35-.63A6.24,6.24,0,0,1,149,118a4.3,4.3,0,0,1,1.27.51l-.6,1.11a4,4,0,0,0-2.23-.62,2.56,2.56,0,0,0-1.36.3.87.87,0,0,0-.46.77.76.76,0,0,0,.26.6,1.8,1.8,0,0,0,.65.32c.26.07.62.15,1.09.23a11.1,11.1,0,0,1,1.51.35,2.23,2.23,0,0,1,1,.61,1.77,1.77,0,0,1,.41,1.23,1.93,1.93,0,0,1-.9,1.67,4.26,4.26,0,0,1-2.44.62A6.46,6.46,0,0,1,145.36,125.41Z"/></g></g></svg>