<?xml version="1.0" encoding="UTF-8" standalone="no"?>
<!DOCTYPE svg PUBLIC "-//W3C//DTD SVG 1.1//EN" "http://www.w3.org/Graphics/SVG/1.1/DTD/svg11.dtd">
<svg width="100%" height="100%" viewBox="0 0 1362 266" version="1.1" xmlns="http://www.w3.org/2000/svg" xmlns:xlink="http://www.w3.org/1999/xlink" xml:space="preserve" xmlns:serif="http://www.serif.com/" style="fill-rule:evenodd;clip-rule:evenodd;stroke-linejoin:round;stroke-miterlimit:2;">
    <g transform="matrix(4.16667,0,0,4.16667,-90.5,-93.275)">
        <path d="M39.795,27.673L36.219,31.249L39.588,34.617L43.164,31.042L39.795,27.673Z" style="fill:white;fill-rule:nonzero;"/>
    </g>
    <g transform="matrix(4.16667,0,0,4.16667,-90.5,-93.275)">
        <path d="M63.706,58.736L76.633,71.662L80.208,68.086L67.282,55.16L63.706,58.736Z" style="fill:white;fill-rule:nonzero;"/>
    </g>
    <g transform="matrix(4.16667,0,0,4.16667,-90.5,-93.275)">
        <path d="M35.754,40.24L39.329,43.815L53.607,29.538L58.694,34.624L62.27,31.049L53.607,22.386L35.754,40.24Z" style="fill:white;fill-rule:nonzero;"/>
    </g>
    <g transform="matrix(4.16667,0,0,4.16667,-90.5,-93.275)">
        <path d="M73.256,40.247L76.832,43.822L80.208,40.446L76.633,36.87L73.256,40.247Z" style="fill:white;fill-rule:nonzero;"/>
    </g>
    <g transform="matrix(4.16667,0,0,4.16667,-90.5,-93.275)">
        <path d="M36.219,77.284L39.794,80.86L52.72,67.934L49.144,64.358L36.219,77.284Z" style="fill:white;fill-rule:nonzero;"/>
    </g>
    <g transform="matrix(4.16667,0,0,4.16667,-90.5,-93.275)">
        <path d="M54.508,58.994L58.084,62.57L71.468,49.186L67.892,45.61L54.508,58.994Z" style="fill:white;fill-rule:nonzero;"/>
    </g>
    <g transform="matrix(4.16667,0,0,4.16667,-90.5,-93.275)">
        <path d="M64.058,39.988L78.343,54.273L73.263,59.353L76.839,62.929L85.494,54.273L67.634,36.412L64.058,39.988Z" style="fill:white;fill-rule:nonzero;"/>
    </g>
    <g transform="matrix(4.16667,0,0,4.16667,-90.5,-93.275)">
        <path d="M27.021,68.086L30.596,71.662L33.958,68.3L30.382,64.724L27.021,68.086Z" style="fill:white;fill-rule:nonzero;"/>
    </g>
    <g transform="matrix(4.16667,0,0,4.16667,-90.5,-93.275)">
        <path d="M54.508,40.598L58.084,44.174L71.01,31.248L67.435,27.672L54.508,40.598Z" style="fill:white;fill-rule:nonzero;"/>
    </g>
    <g transform="matrix(4.16667,0,0,4.16667,-90.5,-93.275)">
        <path d="M21.72,54.274L39.58,72.134L43.156,68.558L28.871,54.274L33.966,49.179L30.39,45.603L21.72,54.274Z" style="fill:white;fill-rule:nonzero;"/>
    </g>
    <g transform="matrix(4.16667,0,0,4.16667,-90.5,-93.275)">
        <path d="M44.952,39.981L58.342,53.372L61.918,49.796L48.528,36.405L44.952,39.981Z" style="fill:white;fill-rule:nonzero;"/>
    </g>
    <g transform="matrix(4.16667,0,0,4.16667,-90.5,-93.275)">
        <path d="M64.065,77.49L67.435,80.86L71.01,77.284L67.641,73.915L64.065,77.49Z" style="fill:white;fill-rule:nonzero;"/>
    </g>
    <g transform="matrix(4.16667,0,0,4.16667,-90.5,-93.275)">
        <path d="M27.021,40.447L39.946,53.372L43.522,49.796L30.597,36.871L27.021,40.447Z" style="fill:white;fill-rule:nonzero;"/>
    </g>
    <g transform="matrix(4.16667,0,0,4.16667,-90.5,-93.275)">
        <path d="M45.31,58.736L58.701,72.127L62.277,68.551L48.886,55.16L45.31,58.736Z" style="fill:white;fill-rule:nonzero;"/>
    </g>
    <g transform="matrix(4.16667,0,0,4.16667,-90.5,-93.275)">
        <path d="M53.607,79.009L48.52,73.922L44.944,77.498L53.607,86.161L71.475,68.292L67.899,64.717L53.607,79.009Z" style="fill:white;fill-rule:nonzero;"/>
    </g>
    <g transform="matrix(4.16667,0,0,4.16667,-90.5,-93.275)">
        <path d="M35.746,59.36L39.322,62.936L52.72,49.538L49.144,45.962L35.746,59.36Z" style="fill:white;fill-rule:nonzero;"/>
    </g>
    <g transform="matrix(4.16667,0,0,4.16667,-90.5,-93.275)">
        <path d="M137.375,41.702C136.732,41.702 135.92,41.744 135.397,41.77C135.159,41.783 134.984,41.792 134.918,41.792C134.839,41.792 134.676,41.785 134.446,41.773C133.875,41.747 132.92,41.702 131.824,41.702C131.618,41.702 130.991,41.702 130.991,42.23C130.991,42.527 131.25,42.759 131.581,42.759C132.993,42.759 132.993,43.13 132.993,43.352C132.993,43.716 132.969,44.107 132.671,45.209C131.989,47.705 130.587,52.247 129.46,55.897C128.97,57.483 128.532,58.904 128.225,59.924L122.446,43.429C122.055,42.324 121.847,41.792 121.389,41.792C120.965,41.792 120.8,42.117 120.333,43.394L114.206,59.898C112.014,52.15 110.659,47.25 110.383,46.073L110.188,45.232C109.988,44.369 109.814,43.623 109.814,43.352C109.814,43.087 109.952,42.949 110.033,42.908C110.331,42.759 110.871,42.759 111.075,42.759C111.665,42.759 111.695,42.319 111.695,42.23C111.695,41.879 111.404,41.702 110.832,41.702C109.76,41.702 108.781,41.747 108.196,41.773C107.957,41.784 107.787,41.792 107.708,41.792C107.604,41.792 107.371,41.783 107.052,41.771C106.32,41.744 105.215,41.702 104.128,41.702C103.431,41.702 103.326,42.033 103.326,42.23C103.326,42.354 103.369,42.759 103.916,42.759C104.177,42.759 104.854,42.8 105.167,42.92C105.826,43.174 106.177,43.531 106.646,45.082L112.045,63.069C112.669,65.191 112.839,65.692 113.411,65.692C114.017,65.692 114.219,65.162 114.707,63.882C115.581,61.625 118.391,54.115 120.07,49.626L120.773,47.747L126.46,63.906C126.905,65.144 127.125,65.692 127.668,65.692C128.25,65.692 128.42,65.207 129.241,62.871C129.826,61.188 130.853,58.038 131.939,54.703C133.025,51.368 134.148,47.92 134.823,45.974C135.385,44.345 135.842,43.171 136.603,42.892C136.88,42.791 137.403,42.759 137.526,42.759C137.879,42.759 138.116,42.535 138.116,42.2C138.116,42.05 138.044,41.702 137.375,41.702Z" style="fill:white;fill-rule:nonzero;"/>
    </g>
    <g transform="matrix(4.16667,0,0,4.16667,-90.5,-93.275)">
        <path d="M152.174,43.535C152.174,43.484 152.184,43.478 152.19,43.474C152.424,43.404 153.181,43.305 154.132,43.305C157.22,43.305 159.063,45.455 159.063,49.055C159.063,51.082 158.423,52.73 157.349,53.467C156.68,53.933 155.833,53.987 155.254,53.987C153.885,53.987 152.586,53.759 152.232,53.546C152.176,53.512 152.174,53.495 152.174,53.454L152.174,43.535ZM169.451,64.209C169.277,64.209 168.869,64.209 168.317,64.123C167.538,63.998 166.324,63.646 164.799,62.034C163.264,60.394 161.473,58.095 159.398,55.433L158.686,54.518C161.112,52.215 162.244,49.972 162.244,47.478C162.244,45.284 160.847,43.691 160.02,43.094C158.307,41.867 156.159,41.702 154.284,41.702C153.692,41.702 152.563,41.737 151.719,41.764C151.223,41.78 150.828,41.792 150.704,41.792C150.667,41.792 150.524,41.787 150.31,41.778C149.659,41.753 148.307,41.702 147.276,41.702C146.744,41.702 146.474,41.889 146.474,42.26C146.474,42.545 146.715,42.759 147.034,42.759C147.331,42.759 147.796,42.793 148,42.843C148.779,43.008 148.996,43.304 149.054,44.282C149.113,45.243 149.113,46.093 149.113,50.815L149.113,56.154C149.113,58.993 149.113,61.444 148.965,62.693C148.845,63.563 148.714,64.019 148.331,64.095C148.01,64.166 147.695,64.209 147.489,64.209C147.104,64.209 146.929,64.467 146.929,64.707C146.929,65.079 147.199,65.267 147.731,65.267C148.508,65.267 149.977,65.204 150.459,65.182L150.583,65.176C150.617,65.176 150.743,65.181 150.935,65.189C151.614,65.214 153.026,65.267 154.314,65.267C155.058,65.267 155.116,64.838 155.116,64.707C155.116,64.467 154.941,64.209 154.557,64.209C154.308,64.209 153.654,64.151 153.234,64.09C152.638,64.011 152.425,63.687 152.323,62.699C152.174,61.444 152.174,58.993 152.174,56.154L152.175,55.501L155.801,55.56C155.866,55.56 155.882,55.56 155.944,55.619C156.2,55.952 156.603,56.506 157.077,57.163C157.728,58.06 158.514,59.144 159.249,60.107L159.639,60.622C161.171,62.642 162.183,63.977 163.446,64.654C164.309,65.119 165.134,65.267 166.842,65.267L168.996,65.267C169.387,65.267 170.04,65.267 170.04,64.707C170.04,64.433 169.776,64.209 169.451,64.209Z" style="fill:white;fill-rule:nonzero;"/>
    </g>
    <g transform="matrix(4.16667,0,0,4.16667,-90.5,-93.275)">
        <path d="M185.19,64.209C184.941,64.209 184.287,64.151 183.867,64.09C183.271,64.011 183.06,63.687 182.957,62.698C182.807,61.444 182.807,58.993 182.807,56.154L182.807,50.815C182.807,46.093 182.807,45.243 182.867,44.281C182.931,43.177 183.186,42.946 183.729,42.846C184.084,42.787 184.246,42.759 184.432,42.759C184.751,42.759 184.991,42.545 184.991,42.26C184.991,41.889 184.722,41.702 184.189,41.702C183.54,41.702 182.382,41.748 181.712,41.774C181.446,41.785 181.26,41.792 181.217,41.792C181.175,41.792 180.999,41.785 180.745,41.775C180.073,41.748 178.877,41.702 178.152,41.702C177.62,41.702 177.351,41.889 177.351,42.26C177.351,42.545 177.591,42.759 177.91,42.759C178.128,42.759 178.489,42.794 178.78,42.873C179.208,42.97 179.505,43.247 179.565,44.282C179.626,45.243 179.626,46.093 179.626,50.815L179.626,56.154C179.626,58.993 179.626,61.444 179.478,62.693C179.36,63.543 179.226,64.019 178.843,64.095C178.521,64.166 178.207,64.209 178.001,64.209C177.617,64.209 177.442,64.467 177.442,64.707C177.442,65.079 177.712,65.267 178.244,65.267C178.894,65.267 180.049,65.221 180.72,65.195C180.986,65.184 181.174,65.176 181.217,65.176C181.251,65.176 181.376,65.181 181.568,65.189C182.247,65.214 183.659,65.267 184.947,65.267C185.691,65.267 185.749,64.838 185.749,64.707C185.749,64.467 185.574,64.209 185.19,64.209Z" style="fill:white;fill-rule:nonzero;"/>
    </g>
    <g transform="matrix(4.16667,0,0,4.16667,-90.5,-93.275)">
        <path d="M219.537,43.183C222.322,43.183 223.315,45.715 223.315,48.084C223.315,49.163 222.945,50.204 222.302,50.94C221.773,51.544 221.49,51.621 219.779,51.621C218.774,51.621 218.248,51.546 218.076,51.546C218.061,51.546 218.048,51.547 218.038,51.548C218.038,51.547 218.033,51.531 218.033,51.482L218.01,43.374C218.011,43.373 218.04,43.352 218.158,43.327C218.58,43.221 219.165,43.183 219.537,43.183ZM221.448,63.754C221.172,63.754 219.753,63.734 218.916,63.331C218.169,62.969 218.153,62.722 218.07,61.35L218.063,61.228C218.033,60.784 218.033,56.974 218.033,54.698L218.034,53.073C219.539,53.075 220.054,53.105 220.239,53.133C220.961,53.223 221.643,53.308 222.604,53.957C225.136,55.701 225.409,58.598 225.409,59.763C225.409,63.642 221.854,63.754 221.448,63.754ZM223.654,51.891C224.985,50.49 226.254,48.977 226.254,46.568C226.254,44.76 224.91,41.702 219.871,41.702C219.056,41.702 218.313,41.732 217.689,41.758C217.247,41.776 216.866,41.792 216.564,41.792C216.527,41.792 216.384,41.787 216.168,41.778C215.518,41.753 214.166,41.702 213.137,41.702C212.604,41.702 212.335,41.889 212.335,42.26C212.335,42.545 212.575,42.759 212.894,42.759C213.191,42.759 213.656,42.793 213.859,42.843C214.64,43.008 214.856,43.304 214.913,44.282C214.974,45.243 214.974,46.093 214.974,50.815L214.974,56.154C214.974,58.993 214.974,61.444 214.825,62.693C214.708,63.543 214.573,64.019 214.19,64.095C213.869,64.166 213.555,64.209 213.349,64.209C212.965,64.209 212.79,64.467 212.79,64.707C212.79,65.079 213.06,65.267 213.592,65.267C213.808,65.267 214.076,65.254 214.364,65.24C214.686,65.224 215.03,65.207 215.365,65.207C215.995,65.176 216.505,65.176 216.564,65.176C216.667,65.176 217.505,65.206 218.404,65.267C218.81,65.281 219.235,65.301 219.608,65.32C220.049,65.34 220.417,65.358 220.599,65.358C225.885,65.358 228.65,61.873 228.65,58.429C228.65,54.774 225.704,52.683 223.654,51.891Z" style="fill:white;fill-rule:nonzero;"/>
    </g>
    <g transform="matrix(4.16667,0,0,4.16667,-90.5,-93.275)">
        <path d="M243.005,43.535C243.005,43.484 243.015,43.478 243.022,43.474C243.256,43.404 244.012,43.305 244.964,43.305C248.052,43.305 249.896,45.455 249.896,49.055C249.896,51.081 249.255,52.73 248.181,53.467C247.511,53.933 246.664,53.987 246.086,53.987C244.716,53.987 243.418,53.759 243.063,53.545C243.008,53.512 243.005,53.495 243.005,53.454L243.005,43.535ZM260.282,64.209C260.108,64.209 259.7,64.209 259.148,64.123C258.37,63.998 257.157,63.646 255.63,62.034C254.092,60.391 252.297,58.086 250.218,55.417L249.517,54.518C251.943,52.215 253.076,49.972 253.076,47.478C253.076,45.286 251.679,43.691 250.852,43.094C249.138,41.867 246.99,41.702 245.115,41.702C244.523,41.702 243.393,41.737 242.549,41.764C242.054,41.78 241.659,41.792 241.536,41.792C241.499,41.792 241.355,41.787 241.139,41.778C240.489,41.753 239.137,41.702 238.108,41.702C237.576,41.702 237.307,41.889 237.307,42.26C237.307,42.545 237.547,42.759 237.865,42.759C238.163,42.759 238.628,42.793 238.831,42.843C239.611,43.008 239.828,43.304 239.885,44.282C239.945,45.243 239.945,46.093 239.945,50.815L239.945,56.154C239.945,58.993 239.945,61.444 239.797,62.693C239.68,63.543 239.545,64.019 239.162,64.095C238.841,64.166 238.526,64.209 238.32,64.209C237.937,64.209 237.762,64.467 237.762,64.707C237.762,65.079 238.031,65.267 238.563,65.267C239.339,65.267 240.808,65.204 241.29,65.182L241.414,65.176C241.448,65.176 241.574,65.181 241.768,65.189C242.446,65.214 243.858,65.267 245.146,65.267C245.89,65.267 245.947,64.838 245.947,64.707C245.947,64.467 245.772,64.209 245.389,64.209C245.14,64.209 244.485,64.151 244.065,64.09C243.471,64.011 243.258,63.687 243.154,62.699C243.005,61.444 243.005,58.993 243.005,56.154L243.006,55.501L246.632,55.56C246.698,55.56 246.714,55.56 246.775,55.619C247.03,55.95 247.43,56.501 247.902,57.154C248.555,58.053 249.343,59.141 250.081,60.107L250.463,60.612C251.998,62.637 253.013,63.976 254.277,64.654C255.141,65.119 255.966,65.267 257.674,65.267L259.827,65.267C260.217,65.267 260.872,65.267 260.872,64.707C260.872,64.433 260.607,64.209 260.282,64.209Z" style="fill:white;fill-rule:nonzero;"/>
    </g>
    <g transform="matrix(4.16667,0,0,4.16667,-90.5,-93.275)">
        <path d="M275.839,54.593L275.84,54.593L275.839,54.91L275.839,54.593ZM275.584,54.593L270.32,54.593L272.854,46.823L275.584,54.593ZM284.908,64.209C284.627,64.209 284.206,64.18 283.782,64.04C283.405,63.931 282.521,63.678 281.38,60.859C280.065,57.582 277.278,50.303 275.613,45.954C274.937,44.185 274.444,42.902 274.313,42.571C273.95,41.631 273.772,41.277 273.352,41.277C272.911,41.277 272.737,41.703 272.386,42.667L265.5,61.506C264.938,63.066 264.384,63.998 263.211,64.151C262.971,64.181 262.563,64.209 262.37,64.209C262.022,64.209 261.78,64.415 261.78,64.707C261.78,65.267 262.453,65.267 262.674,65.267C263.638,65.267 264.714,65.226 265.415,65.199C265.748,65.186 265.994,65.176 266.102,65.176C266.233,65.176 266.52,65.191 266.861,65.208C267.383,65.235 268.028,65.267 268.467,65.267C269.163,65.267 269.238,64.875 269.238,64.707C269.238,64.624 269.209,64.209 268.619,64.209L268.315,64.209C267.992,64.209 267.479,64.056 267.479,63.646C267.479,63.139 267.628,62.437 267.888,61.715L269.711,56.319L276.21,56.296L279.03,63.757C279.135,64.037 279.063,64.153 279.067,64.158C278.648,64.263 278.616,64.582 278.616,64.677C278.616,65.146 279.112,65.17 279.688,65.2L279.834,65.207C281.187,65.246 282.881,65.267 284.605,65.267C285.409,65.267 285.528,64.916 285.528,64.707C285.528,64.558 285.468,64.209 284.908,64.209Z" style="fill:white;fill-rule:nonzero;"/>
    </g>
    <g transform="matrix(4.16667,0,0,4.16667,-90.5,-93.275)">
        <path d="M301.395,51.688L300.545,51.02C297.735,48.826 296.966,47.784 296.966,46.173C296.966,44.258 298.338,42.971 300.38,42.971C302.842,42.971 303.657,43.98 303.894,44.415C304.048,44.696 304.223,45.469 304.252,45.818C304.279,46.036 304.336,46.49 304.81,46.49C305.338,46.49 305.338,45.805 305.338,45.476C305.338,43.867 305.412,42.91 305.444,42.5C305.454,42.375 305.459,42.296 305.459,42.26C305.459,42.063 305.379,41.732 304.84,41.732C304.635,41.732 304.425,41.709 303.852,41.588C302.965,41.375 302.045,41.277 300.957,41.277C297.012,41.277 294.361,43.598 294.361,47.053C294.361,49.152 295.052,51.116 298.42,53.881L299.785,55.002C302.433,57.189 303.158,58.31 303.158,60.218C303.158,62.066 301.776,63.937 299.137,63.937C298.054,63.937 295.478,63.66 294.957,61.091C294.872,60.7 294.872,60.301 294.872,60.037C294.872,59.875 294.872,59.386 294.344,59.386C293.856,59.386 293.806,59.948 293.785,60.167L293.76,60.512C293.712,61.128 293.633,62.161 293.633,63.404C293.633,64.237 293.663,64.54 294.263,64.839L294.266,64.841C295.44,65.414 296.815,65.692 298.469,65.692C300.336,65.692 301.982,65.232 303.233,64.359C305.232,62.94 305.944,60.694 305.944,59.066C305.944,56.664 305.2,54.687 301.395,51.688Z" style="fill:white;fill-rule:nonzero;"/>
    </g>
    <g transform="matrix(4.16667,0,0,4.16667,-90.5,-93.275)">
        <path d="M323.488,64.209C323.239,64.209 322.585,64.151 322.165,64.09C321.569,64.011 321.357,63.687 321.255,62.698C321.104,61.444 321.104,58.993 321.104,56.154L321.104,50.815C321.104,46.093 321.104,45.243 321.166,44.28C321.229,43.177 321.483,42.946 322.026,42.846C322.382,42.787 322.544,42.759 322.729,42.759C323.049,42.759 323.289,42.545 323.289,42.26C323.289,41.889 323.02,41.702 322.487,41.702C321.838,41.702 320.68,41.748 320.01,41.774C319.744,41.785 319.558,41.792 319.515,41.792C319.473,41.792 319.297,41.785 319.042,41.775C318.37,41.748 317.174,41.702 316.45,41.702C315.918,41.702 315.648,41.889 315.648,42.26C315.648,42.545 315.889,42.759 316.208,42.759C316.426,42.759 316.787,42.794 317.078,42.873C317.506,42.97 317.803,43.247 317.863,44.282C317.924,45.243 317.924,46.093 317.924,50.815L317.924,56.154C317.924,58.993 317.924,61.444 317.775,62.693C317.658,63.543 317.523,64.019 317.141,64.095C316.819,64.166 316.505,64.209 316.299,64.209C315.915,64.209 315.74,64.467 315.74,64.707C315.74,65.079 316.01,65.267 316.542,65.267C317.19,65.267 318.346,65.221 319.017,65.195C319.283,65.184 319.472,65.176 319.515,65.176C319.549,65.176 319.674,65.181 319.866,65.189C320.545,65.214 321.957,65.267 323.245,65.267C323.989,65.267 324.047,64.838 324.047,64.707C324.047,64.467 323.872,64.209 323.488,64.209Z" style="fill:white;fill-rule:nonzero;"/>
    </g>
    <g transform="matrix(4.16667,0,0,4.16667,-90.5,-93.275)">
        <path d="M348.045,60.417C347.713,60.417 347.515,60.643 347.459,61.08C347.368,61.651 347.072,62.337 346.739,62.747C346.127,63.487 344.984,63.542 343.313,63.542C340.962,63.542 340.28,63.32 339.896,62.937C339.416,62.456 339.321,60.108 339.321,56.214L339.321,50.815C339.321,46.093 339.321,45.243 339.383,44.28C339.439,43.281 339.646,42.958 340.301,42.846C340.66,42.787 341.072,42.759 341.25,42.759C341.568,42.759 341.809,42.545 341.809,42.26C341.809,41.889 341.539,41.702 341.008,41.702C340.358,41.702 339.049,41.748 338.289,41.774C337.987,41.785 337.774,41.792 337.731,41.792C337.694,41.792 337.551,41.787 337.334,41.778C336.685,41.753 335.332,41.702 334.304,41.702C333.771,41.702 333.502,41.889 333.502,42.26C333.502,42.545 333.742,42.759 334.061,42.759C334.358,42.759 334.823,42.793 335.026,42.843C335.807,43.008 336.023,43.304 336.08,44.282C336.141,45.243 336.141,46.093 336.141,50.815L336.141,56.154C336.141,58.993 336.141,61.444 335.992,62.693C335.875,63.543 335.74,64.019 335.357,64.095C335.036,64.166 334.722,64.209 334.516,64.209C334.132,64.209 333.957,64.467 333.957,64.707C333.957,65.079 334.227,65.267 334.759,65.267C335.218,65.267 335.891,65.237 336.487,65.207C336.911,65.207 337.291,65.192 337.526,65.183L337.731,65.176C338.565,65.176 339.458,65.203 340.817,65.267L341.709,65.29C342.799,65.321 344.155,65.358 345.861,65.358C347.51,65.358 347.799,65.221 348.077,64.306C348.333,63.379 348.543,61.54 348.543,61.189C348.543,60.938 348.543,60.417 348.045,60.417Z" style="fill:white;fill-rule:nonzero;"/>
    </g>
</svg>
